<svg version="1.1" xmlns="http://www.w3.org/2000/svg" xmlns:xlink="http://www.w3.org/1999/xlink" width="30" height="30" viewBox="0 0 30 30">
<path id="Color-Fill-2" d="M24.227,7.531 C24.227,7.531 24.227,12.646 24.227,12.646 C24.227,16.436 21.143,19.519 17.354,19.519 C7.531,19.519 7.531,19.519 7.531,19.519 C7.531,19.519 7.531,20.178 7.531,20.178 C7.531,22.998 9.826,25.293 12.646,25.293 C23.154,25.293 23.154,25.293 23.154,25.293 C23.154,25.293 28.558,29.796 28.558,29.796 C28.719,29.930 28.919,30.000 29.121,30.000 C29.604,30.000 30.000,29.608 30.000,29.121 C30.000,12.646 30.000,12.646 30.000,12.646 C30.000,9.822 27.715,7.531 24.885,7.531 C24.885,7.531 24.227,7.531 24.227,7.531 zM22.469,5.115 C22.469,2.285 20.179,-0.000 17.354,-0.000 C5.115,-0.000 5.115,-0.000 5.115,-0.000 C2.285,-0.000 -0.000,2.290 -0.000,5.115 C-0.000,21.590 -0.000,21.590 -0.000,21.590 C-0.000,22.076 0.395,22.469 0.879,22.469 C1.081,22.469 1.281,22.399 1.441,22.265 C6.846,17.762 6.846,17.762 6.846,17.762 C6.846,17.762 17.354,17.762 17.354,17.762 C20.174,17.762 22.469,15.467 22.469,12.646 C22.469,12.646 22.469,5.115 22.469,5.115 zM10.355,13.117 C10.355,12.632 10.749,12.238 11.234,12.238 C11.719,12.238 12.113,12.632 12.113,13.117 C12.113,13.602 11.719,13.996 11.234,13.996 C10.749,13.996 10.355,13.602 10.355,13.117 zM12.113,10.293 C12.113,10.778 11.720,11.172 11.234,11.172 C10.749,11.172 10.355,10.778 10.355,10.293 C10.355,9.352 10.355,9.352 10.355,9.352 C10.355,8.866 10.749,8.473 11.234,8.473 C12.047,8.473 12.709,7.811 12.709,6.998 C12.709,6.185 12.047,5.523 11.234,5.523 C10.840,5.523 10.470,5.677 10.191,5.955 C9.913,6.233 9.760,6.603 9.760,6.997 C9.760,7.482 9.366,7.876 8.881,7.876 C8.395,7.876 8.002,7.483 8.002,6.998 C8.002,6.997 8.002,6.997 8.002,6.997 C8.002,6.134 8.338,5.322 8.948,4.712 C9.559,4.102 10.370,3.765 11.233,3.765 C13.017,3.765 14.467,5.215 14.467,6.998 C14.467,8.476 13.470,9.725 12.113,10.109 C12.113,10.109 12.113,10.293 12.113,10.293 z" fill="#5A6389" />
</svg>
