<svg version="1.1" xmlns="http://www.w3.org/2000/svg" xmlns:xlink="http://www.w3.org/1999/xlink" width="88" height="88" viewBox="0 0 88 88">
<g id="Group-19">
<g id="Group-19">
<path id="Color-Fill-1" d="M59.216,7.422 C63.704,5.335 68.902,8.338 69.340,13.270 C69.646,16.718 72.377,19.450 75.822,19.755 C80.752,20.193 83.753,25.394 81.667,29.885 C80.209,33.024 81.209,36.756 84.040,38.745 C88.090,41.590 88.090,47.596 84.040,50.441 C81.209,52.429 80.209,56.162 81.667,59.301 C83.753,63.791 80.752,68.992 75.822,69.430 C72.376,69.736 69.646,72.468 69.340,75.916 C68.903,80.848 63.704,83.851 59.216,81.763 C56.079,80.305 52.349,81.305 50.361,84.137 C47.517,88.190 41.515,88.190 38.671,84.137 C36.684,81.305 32.953,80.305 29.816,81.763 C25.328,83.851 20.130,80.848 19.692,75.916 C19.386,72.468 16.655,69.736 13.210,69.430 C8.280,68.992 5.279,63.792 7.365,59.301 C8.823,56.162 7.823,52.429 4.993,50.441 C0.942,47.596 0.942,41.590 4.993,38.745 C7.823,36.756 8.823,33.024 7.365,29.885 C5.279,25.394 8.280,20.194 13.210,19.755 C16.655,19.450 19.386,16.717 19.692,13.270 C20.130,8.338 25.327,5.335 29.816,7.422 C32.953,8.881 36.684,7.880 38.671,5.048 C41.515,0.995 47.517,0.995 50.361,5.048 C52.349,7.880 56.079,8.881 59.216,7.422 z" fill="#FF8533" />
<path id="Color-Fill-2" d="M44.516,77.283 C26.472,77.283 11.843,62.647 11.843,44.593 C11.843,26.538 26.472,11.902 44.516,11.902 C62.561,11.902 77.189,26.538 77.189,44.593 C77.189,62.647 62.561,77.283 44.516,77.283 z" fill="#F8FBFF" />
<path id="Color-Fill-3" d="M44.516,11.902 C42.973,11.902 41.455,12.012 39.968,12.219 C55.860,14.434 68.093,28.083 68.093,44.593 C68.093,61.103 55.860,74.752 39.968,76.967 C41.455,77.173 42.973,77.283 44.516,77.283 C62.561,77.283 77.189,62.647 77.189,44.593 C77.189,26.538 62.561,11.902 44.516,11.902 C44.516,11.902 44.516,11.902 44.516,11.902 z" fill="#E4EAF7" />
<path id="Color-Fill-4" d="M50.829,36.326 C50.829,36.326 64.435,36.946 64.435,36.946 C65.931,37.014 66.544,38.901 65.373,39.836 C54.730,48.339 54.730,48.339 54.730,48.339 C54.730,48.339 58.345,61.479 58.345,61.479 C58.743,62.923 57.139,64.089 55.889,63.265 C44.516,55.764 44.516,55.764 44.516,55.764 C44.516,55.764 33.144,63.265 33.144,63.265 C31.893,64.089 30.290,62.923 30.687,61.479 C34.303,48.339 34.303,48.339 34.303,48.339 C34.303,48.339 23.659,39.835 23.659,39.835 C22.489,38.901 23.101,37.014 24.597,36.946 C38.204,36.326 38.204,36.326 38.204,36.326 C38.204,36.326 42.998,23.570 42.998,23.570 C43.525,22.168 45.508,22.168 46.034,23.570 C46.034,23.570 50.829,36.326 50.829,36.326 z" fill="#FCDF6C" />
<path id="Color-Fill-5" d="M57.434,36.628 L45.638,46.051 L49.153,58.821 C49.153,58.821 55.889,63.264 55.889,63.264 C57.139,64.089 58.743,62.923 58.345,61.478 C54.730,48.339 54.730,48.339 54.730,48.339 C54.730,48.339 65.373,39.835 65.373,39.835 C66.544,38.901 65.931,37.014 64.435,36.946 C64.435,36.946 57.434,36.628 57.434,36.628 z" fill="#F4B425" />
<path id="Color-Fill-6" d="M82.832,30.427 C84.005,27.901 83.880,25.070 82.488,22.658 C81.097,20.246 78.708,18.722 75.936,18.476 C73.106,18.225 70.870,15.987 70.619,13.157 C70.373,10.383 68.850,7.993 66.439,6.601 C64.029,5.208 61.199,5.083 58.674,6.256 C56.099,7.454 53.044,6.635 51.413,4.310 C49.813,2.031 47.299,0.723 44.516,0.723 C41.733,0.723 39.219,2.031 37.620,4.310 C35.988,6.635 32.933,7.454 30.358,6.256 C27.834,5.082 25.004,5.208 22.593,6.601 C20.183,7.993 18.659,10.383 18.413,13.157 C18.162,15.987 15.926,18.225 13.097,18.476 C10.324,18.722 7.936,20.246 6.544,22.658 C5.153,25.070 5.028,27.901 6.200,30.427 C7.398,33.004 6.579,36.060 4.255,37.693 C1.977,39.293 0.670,41.808 0.670,44.593 C0.670,47.377 1.977,49.892 4.255,51.493 C6.579,53.125 7.397,56.182 6.200,58.758 C5.028,61.284 5.153,64.116 6.544,66.527 C7.936,68.939 10.324,70.463 13.097,70.710 C15.926,70.961 18.162,73.198 18.413,76.029 C18.659,78.803 20.183,81.192 22.593,82.585 C25.004,83.977 27.834,84.102 30.358,82.929 C32.934,81.731 35.988,82.550 37.620,84.875 C39.219,87.155 41.733,88.462 44.516,88.462 C47.299,88.462 49.813,87.155 51.413,84.875 C53.044,82.550 56.099,81.731 58.674,82.929 C61.199,84.102 64.029,83.977 66.439,82.585 C68.850,81.192 70.373,78.803 70.619,76.029 C70.870,73.198 73.106,70.961 75.936,70.710 C78.708,70.463 81.097,68.939 82.488,66.527 C83.880,64.116 84.005,61.284 82.832,58.758 C81.634,56.181 82.453,53.125 84.778,51.493 C87.056,49.892 88.362,47.377 88.362,44.593 C88.362,41.808 87.056,39.293 84.778,37.693 C82.453,36.060 81.635,33.003 82.832,30.427 zM80.502,59.842 C81.317,61.597 81.230,63.566 80.263,65.242 C79.295,66.918 77.636,67.978 75.709,68.149 C71.638,68.511 68.422,71.729 68.060,75.802 C67.889,77.730 66.830,79.390 65.155,80.358 C63.479,81.326 61.512,81.413 59.758,80.598 C56.051,78.874 51.658,80.052 49.310,83.399 C48.198,84.983 46.451,85.892 44.516,85.892 C42.581,85.892 40.834,84.983 39.723,83.399 C38.100,81.087 35.501,79.810 32.827,79.810 C31.631,79.810 30.420,80.065 29.275,80.598 C27.521,81.414 25.553,81.326 23.878,80.359 C22.202,79.391 21.143,77.730 20.972,75.802 C20.611,71.729 17.394,68.511 13.324,68.149 C11.397,67.979 9.737,66.919 8.769,65.243 C7.802,63.566 7.715,61.598 8.530,59.842 C10.253,56.134 9.075,51.738 5.731,49.389 C4.147,48.276 3.239,46.529 3.239,44.593 C3.239,42.657 4.147,40.909 5.731,39.796 C9.075,37.448 10.252,33.051 8.530,29.343 C7.715,27.588 7.802,25.619 8.769,23.943 C9.737,22.267 11.397,21.207 13.324,21.036 C17.394,20.675 20.611,17.456 20.972,13.384 C21.143,11.456 22.202,9.795 23.878,8.827 C25.553,7.859 27.521,7.772 29.275,8.587 C32.981,10.310 37.374,9.132 39.723,5.787 C40.834,4.202 42.581,3.294 44.516,3.294 C46.451,3.294 48.198,4.202 49.310,5.787 C50.361,5.048 50.361,5.048 50.361,5.048 C50.361,5.048 49.310,5.787 49.310,5.787 C51.658,9.133 56.052,10.311 59.758,8.588 C61.512,7.772 63.479,7.859 65.155,8.827 C66.830,9.795 67.889,11.456 68.060,13.384 C68.422,17.456 71.638,20.675 75.709,21.036 C77.636,21.207 79.295,22.267 80.263,23.943 C81.230,25.619 81.317,27.588 80.502,29.343 C78.780,33.051 79.957,37.448 83.302,39.796 C84.885,40.909 85.793,42.657 85.793,44.593 C85.793,46.529 84.885,48.276 83.302,49.389 C79.957,51.738 78.780,56.134 80.502,59.842 z" fill="#000000" />
<path id="Color-Fill-7" d="M75.806,47.096 C75.188,54.946 71.659,62.233 65.869,67.612 C60.048,73.020 52.465,75.998 44.516,75.998 C36.568,75.998 28.984,73.020 23.164,67.612 C17.373,62.233 13.844,54.946 13.226,47.096 C13.170,46.388 12.551,45.857 11.844,45.915 C11.137,45.971 10.609,46.589 10.665,47.297 C11.334,55.793 15.152,63.676 21.416,69.495 C27.713,75.347 35.918,78.568 44.517,78.568 C53.116,78.568 61.320,75.347 67.617,69.495 C73.881,63.676 77.699,55.793 78.368,47.297 C78.424,46.589 77.895,45.971 77.188,45.915 C76.481,45.858 75.863,46.388 75.806,47.096 z" fill="#000000" />
<path id="Color-Fill-8" d="M11.844,43.263 C11.878,43.266 11.913,43.267 11.947,43.267 C12.610,43.267 13.173,42.757 13.226,42.083 C13.846,34.234 17.376,26.949 23.166,21.571 C28.986,16.165 36.569,13.187 44.516,13.187 C52.459,13.187 60.039,16.162 65.858,21.563 C71.646,26.935 75.178,34.214 75.804,42.058 C75.861,42.766 76.481,43.293 77.187,43.237 C77.895,43.180 78.422,42.561 78.366,41.854 C77.688,33.366 73.867,25.490 67.605,19.678 C61.309,13.835 53.109,10.617 44.516,10.617 C35.918,10.617 27.715,13.838 21.418,19.687 C15.155,25.505 11.336,33.387 10.665,41.881 C10.609,42.589 11.137,43.207 11.844,43.263 C11.844,43.263 11.844,43.263 11.844,43.263 z" fill="#000000" />
<path id="Color-Fill-9" d="M64.494,35.662 C51.732,35.081 51.732,35.081 51.732,35.081 C51.732,35.081 47.236,23.118 47.236,23.118 C46.806,21.973 45.739,21.234 44.516,21.234 C43.294,21.234 42.226,21.973 41.796,23.118 C37.300,35.081 37.300,35.081 37.300,35.081 C37.300,35.081 24.539,35.662 24.539,35.662 C23.318,35.718 22.284,36.506 21.907,37.669 C21.529,38.832 21.902,40.077 22.857,40.840 C32.839,48.815 32.839,48.815 32.839,48.815 C32.839,48.815 29.449,61.137 29.449,61.137 C29.124,62.317 29.554,63.543 30.543,64.262 C31.531,64.981 32.830,65.011 33.851,64.337 C44.516,57.303 44.516,57.303 44.516,57.303 C44.516,57.303 55.181,64.338 55.181,64.338 C55.673,64.662 56.228,64.822 56.782,64.822 C57.380,64.822 57.977,64.635 58.490,64.262 C59.479,63.543 59.908,62.317 59.584,61.137 C56.193,48.815 56.193,48.815 56.193,48.815 C56.193,48.815 66.175,40.840 66.175,40.840 C67.130,40.077 67.504,38.832 67.126,37.669 C66.748,36.506 65.715,35.718 64.494,35.662 zM53.928,47.335 C53.527,47.656 53.355,48.185 53.491,48.681 C57.107,61.820 57.107,61.820 57.107,61.820 C57.148,61.969 57.105,62.091 56.980,62.182 C56.854,62.274 56.725,62.277 56.596,62.191 C45.223,54.690 45.223,54.690 45.223,54.690 C45.009,54.549 44.762,54.478 44.516,54.478 C44.270,54.478 44.024,54.549 43.809,54.690 C32.437,62.191 32.437,62.191 32.437,62.191 C32.308,62.277 32.178,62.274 32.053,62.182 C31.928,62.091 31.885,61.969 31.926,61.820 C35.541,48.681 35.541,48.681 35.541,48.681 C35.678,48.185 35.506,47.656 35.104,47.335 C24.460,38.831 24.460,38.831 24.460,38.831 C24.339,38.734 24.302,38.610 24.350,38.463 C24.398,38.316 24.501,38.237 24.655,38.230 C38.262,37.610 38.262,37.610 38.262,37.610 C38.776,37.587 39.225,37.260 39.406,36.779 C44.200,24.022 44.200,24.022 44.200,24.022 C44.255,23.877 44.361,23.803 44.516,23.803 C44.671,23.803 44.777,23.877 44.832,24.022 C49.626,36.779 49.626,36.779 49.626,36.779 C49.807,37.260 50.257,37.587 50.770,37.610 C64.377,38.230 64.377,38.230 64.377,38.230 C64.532,38.237 64.634,38.316 64.682,38.463 C64.731,38.611 64.693,38.734 64.572,38.831 C64.572,38.831 53.928,47.335 53.928,47.335 z" fill="#000000" />
</g>
</g>
</svg>
