<svg version="1.1" xmlns="http://www.w3.org/2000/svg" xmlns:xlink="http://www.w3.org/1999/xlink" width="55" height="82" viewBox="0 0 55 82">
<g id="Group-21">
<g id="Group-21">
<path id="Color-Fill-1" d="M38.283,33.953 L18.929,33.953 C18.929,33.953 36.261,2.652 36.261,2.652 C36.482,2.254 36.895,2.007 37.343,2.007 C53.840,2.007 53.840,2.007 53.840,2.007 C54.793,2.007 55.391,3.055 54.923,3.901 C54.923,3.901 38.283,33.953 38.283,33.953 z" fill="#99E2FF" />
<path id="Color-Fill-2" d="M47.774,2.007 L30.086,33.953 L38.283,33.953 C38.283,33.953 54.923,3.901 54.923,3.901 C55.391,3.055 54.793,2.007 53.841,2.007 C47.774,2.007 47.774,2.007 47.774,2.007 z" fill="#52A7C9" />
<path id="Color-Fill-3" d="M18.933,33.953 L38.287,33.953 C38.287,33.953 20.955,2.652 20.955,2.652 C20.735,2.254 20.321,2.007 19.873,2.007 C3.375,2.007 3.375,2.007 3.375,2.007 C2.424,2.007 1.825,3.055 2.293,3.901 C2.293,3.901 18.933,33.953 18.933,33.953 z" fill="#99E2FF" />
<path id="Color-Fill-4" d="M12.259,2.007 L29.948,33.953 L38.287,33.953 C38.287,33.953 20.955,2.652 20.955,2.652 C20.735,2.254 20.321,2.007 19.873,2.007 C19.873,2.007 12.259,2.007 12.259,2.007 z" fill="#52A7C9" />
<path id="Color-Fill-5" d="M28.608,81.369 C14.938,81.369 3.856,70.058 3.856,56.106 C3.856,42.154 14.938,30.844 28.608,30.844 C42.279,30.844 53.361,42.154 53.361,56.106 C53.361,70.058 42.279,81.369 28.608,81.369 z" fill="#FF8533" />
<path id="Color-Fill-6" d="M28.608,74.932 C18.421,74.932 10.162,66.504 10.162,56.106 C10.162,45.709 18.421,37.281 28.608,37.281 C38.796,37.281 47.054,45.709 47.054,56.106 C47.054,66.504 38.796,74.932 28.608,74.932 z" fill="#FCDF6C" />
<path id="Color-Fill-7" d="M24.549,37.739 C32.783,39.627 38.935,47.133 38.935,56.106 C38.935,65.080 32.783,72.586 24.549,74.474 C25.855,74.773 27.214,74.932 28.608,74.932 C38.796,74.932 47.054,66.504 47.054,56.106 C47.054,45.709 38.796,37.281 28.608,37.281 C27.214,37.281 25.855,37.440 24.549,37.739 z" fill="#F4B425" />
<path id="Color-Fill-8" d="M21.977,2.063 C21.549,1.290 20.743,0.810 19.873,0.810 C3.376,0.810 3.376,0.810 3.376,0.810 C2.506,0.810 1.727,1.267 1.288,2.033 C0.850,2.800 0.844,3.718 1.272,4.490 C16.808,32.550 16.808,32.550 16.808,32.550 C8.429,36.940 2.682,45.851 2.682,56.107 C2.682,70.696 14.313,82.566 28.608,82.566 C42.904,82.566 54.534,70.696 54.534,56.106 C54.534,45.018 47.816,35.501 38.316,31.571 C38.316,31.571 21.977,2.063 21.977,2.063 zM3.314,3.312 C3.306,3.297 3.295,3.276 3.315,3.241 C3.335,3.205 3.359,3.205 3.376,3.205 C19.873,3.205 19.873,3.205 19.873,3.205 C19.898,3.205 19.922,3.219 19.934,3.241 C35.006,30.462 35.006,30.462 35.006,30.462 C32.959,29.930 30.816,29.647 28.608,29.647 C25.197,29.647 21.937,30.323 18.951,31.550 C3.314,3.312 3.314,3.312 3.314,3.312 zM5.029,56.106 C5.029,42.837 15.607,32.042 28.608,32.042 C41.609,32.042 52.187,42.837 52.187,56.107 C52.187,69.376 41.609,80.171 28.608,80.171 C15.607,80.171 5.029,69.376 5.029,56.106 z" fill="#000000" />
<path id="Color-Fill-9" d="M9.147,53.556 C9.065,54.213 9.520,54.812 10.163,54.896 C10.807,54.979 11.393,54.514 11.475,53.858 C12.568,45.090 19.933,38.478 28.608,38.478 C37.284,38.478 44.650,45.091 45.742,53.861 C45.817,54.466 46.323,54.908 46.904,54.908 C46.954,54.908 47.003,54.905 47.054,54.898 C47.696,54.814 48.152,54.215 48.070,53.559 C46.830,43.596 38.463,36.083 28.608,36.083 C18.755,36.083 10.388,43.595 9.147,53.556 z" fill="#000000" />
<path id="Color-Fill-10" d="M45.741,58.354 C44.649,67.122 37.283,73.735 28.608,73.735 C19.931,73.735 12.565,67.121 11.474,58.350 C11.393,57.694 10.805,57.230 10.162,57.313 C9.519,57.396 9.065,57.996 9.146,58.652 C10.385,68.616 18.752,76.130 28.608,76.130 C38.462,76.130 46.828,68.618 48.070,58.657 C48.151,58.001 47.696,57.401 47.054,57.318 C46.411,57.234 45.823,57.698 45.741,58.354 z" fill="#000000" />
<path id="Color-Fill-11" d="M53.184,0.810 C36.686,0.810 36.686,0.810 36.686,0.810 C35.817,0.810 35.011,1.290 34.582,2.063 C29.627,11.013 29.627,11.013 29.627,11.013 C29.308,11.588 29.507,12.319 30.071,12.644 C30.635,12.970 31.351,12.767 31.670,12.191 C36.625,3.241 36.625,3.241 36.625,3.241 C36.637,3.219 36.661,3.205 36.686,3.205 C53.183,3.205 53.183,3.205 53.183,3.205 C53.200,3.205 53.224,3.205 53.244,3.241 C53.264,3.276 53.252,3.297 53.244,3.312 C39.304,28.489 39.304,28.489 39.304,28.489 C38.985,29.065 39.184,29.796 39.748,30.121 C39.930,30.226 40.128,30.276 40.324,30.276 C40.733,30.276 41.131,30.057 41.346,29.667 C55.287,4.490 55.287,4.490 55.287,4.490 C55.715,3.718 55.709,2.800 55.271,2.033 C54.833,1.267 54.053,0.810 53.184,0.810 z" fill="#000000" />
</g>
</g>
</svg>
