<svg version="1.1" xmlns="http://www.w3.org/2000/svg" xmlns:xlink="http://www.w3.org/1999/xlink" width="184" height="277" viewBox="0 0 184 277">
<g id="Group-20">
<path id="Color-Fill-1" d="M91.973,116.734 C91.973,116.734 26.925,85.628 26.925,85.628 C22.314,83.425 19.379,78.769 19.379,73.658 C19.379,8.767 19.379,8.767 19.379,8.767 L164.568,8.767 C164.568,8.767 164.568,73.660 164.568,73.660 C164.568,78.769 161.633,83.425 157.023,85.631 C157.023,85.631 91.973,116.734 91.973,116.734 z" fill="#FC5B8C" />
<path id="Color-Fill-2" d="M62.637,102.707 L91.973,116.734 L121.308,102.707 L121.308,8.767 L62.637,8.767 L62.637,102.707 z" fill="#E4EAF7" />
<path id="Color-Fill-3" d="M121.308,8.767 L121.308,102.707 C121.308,102.707 157.023,85.631 157.023,85.631 C161.633,83.425 164.568,78.769 164.568,73.660 C164.568,8.767 164.568,8.767 164.568,8.767 L121.308,8.767 z" fill="#66BBDD" />
<path id="Color-Fill-4" d="M11.888,22.918 C7.980,22.918 4.813,19.752 4.813,15.843 C4.813,11.936 7.980,8.767 11.888,8.767 C172.060,8.767 172.060,8.767 172.060,8.767 C175.966,8.767 179.134,11.934 179.134,15.843 C179.134,19.752 175.966,22.918 172.060,22.918 C172.060,22.918 11.888,22.918 11.888,22.918 z" fill="#FF8533" />
<path id="Color-Fill-5" d="M114.389,179.709 C114.389,179.709 162.708,181.909 162.708,181.909 C168.021,182.151 170.197,188.846 166.040,192.166 C128.242,222.351 128.242,222.351 128.242,222.351 C128.242,222.351 141.082,268.992 141.082,268.992 C142.493,274.120 136.797,278.259 132.359,275.332 C91.973,248.705 91.973,248.705 91.973,248.705 C91.973,248.705 51.589,275.330 51.589,275.330 C47.148,278.257 41.453,274.118 42.866,268.992 C55.705,222.351 55.705,222.351 55.705,222.351 C55.705,222.351 17.905,192.164 17.905,192.164 C13.751,188.846 15.927,182.151 21.238,181.907 C69.559,179.707 69.559,179.707 69.559,179.707 C69.559,179.707 86.582,134.427 86.582,134.427 C88.453,129.450 95.494,129.450 97.366,134.427 C97.366,134.427 114.389,179.709 114.389,179.709 z" fill="#FF8533" />
<path id="Color-Fill-6" d="M49.045,198.436 C47.712,197.370 48.410,195.219 50.115,195.141 C78.570,193.846 78.570,193.846 78.570,193.846 C79.308,193.812 79.957,193.341 80.218,192.650 C90.242,165.985 90.242,165.985 90.242,165.985 C90.844,164.385 93.104,164.385 93.705,165.985 C103.730,192.650 103.730,192.650 103.730,192.650 C103.990,193.341 104.638,193.812 105.376,193.846 C133.831,195.141 133.831,195.141 133.831,195.141 C135.536,195.219 136.236,197.370 134.901,198.436 C112.642,216.211 112.642,216.211 112.642,216.211 C112.064,216.674 111.816,217.435 112.013,218.148 C119.574,245.614 119.574,245.614 119.574,245.614 C120.026,247.260 118.197,248.589 116.771,247.649 C92.990,231.969 92.990,231.969 92.990,231.969 C92.372,231.563 91.571,231.563 90.955,231.969 C67.174,247.649 67.174,247.649 67.174,247.649 C65.749,248.589 63.920,247.260 64.372,245.614 C71.932,218.148 71.932,218.148 71.932,218.148 C72.130,217.435 71.882,216.674 71.304,216.211 C71.304,216.211 49.045,198.436 49.045,198.436 z" fill="#FCDF6C" />
<path id="Color-Fill-7" d="M105.378,193.846 C104.638,193.812 103.990,193.341 103.730,192.650 C103.488,192.002 103.488,192.002 103.488,192.002 L83.836,207.695 L90.585,232.213 C90.585,232.213 90.955,231.969 90.955,231.969 C91.573,231.561 92.374,231.561 92.992,231.969 C116.773,247.647 116.773,247.647 116.773,247.647 C118.199,248.587 120.028,247.258 119.574,245.611 C112.013,218.148 112.013,218.148 112.013,218.148 C111.818,217.433 112.064,216.671 112.642,216.209 C134.901,198.434 134.901,198.434 134.901,198.434 C136.236,197.370 135.538,195.219 133.831,195.141 C133.831,195.141 105.378,193.846 105.378,193.846 z" fill="#F4B425" />
<path id="Color-Fill-8" d="M91.973,116.734 C91.973,116.734 26.925,85.628 26.925,85.628 C22.314,83.425 19.379,78.769 19.379,73.658 C19.379,8.767 19.379,8.767 19.379,8.767 L164.568,8.767 C164.568,8.767 164.568,73.660 164.568,73.660 C164.568,78.769 161.633,83.425 157.023,85.631 C157.023,85.631 91.973,116.734 91.973,116.734 z" fill="#FC5B8C" />
<path id="Color-Fill-9" d="M62.637,102.707 L91.973,116.734 L121.308,102.707 L121.308,8.767 L62.637,8.767 L62.637,102.707 z" fill="#E4EAF7" />
<path id="Color-Fill-10" d="M121.308,8.767 L121.308,102.707 C121.308,102.707 157.023,85.631 157.023,85.631 C161.633,83.425 164.568,78.769 164.568,73.660 C164.568,8.767 164.568,8.767 164.568,8.767 L121.308,8.767 z" fill="#66BBDD" />
<path id="Color-Fill-11" d="M136.387,8.767 C136.387,8.767 136.387,59.994 136.387,59.994 C136.387,65.104 133.452,69.761 128.844,71.965 C121.310,75.567 121.310,75.567 121.310,75.567 L121.310,102.707 C121.310,102.707 157.025,85.631 157.025,85.631 C161.633,83.425 164.568,78.769 164.568,73.660 C164.568,8.767 164.568,8.767 164.568,8.767 L136.387,8.767 z" fill="#52A7C9" />
<path id="Color-Fill-12" d="M11.888,22.918 C7.980,22.918 4.813,19.752 4.813,15.843 C4.813,11.936 7.980,8.767 11.888,8.767 C172.060,8.767 172.060,8.767 172.060,8.767 C175.966,8.767 179.134,11.934 179.134,15.843 C179.134,19.752 175.966,22.918 172.060,22.918 C172.060,22.918 11.888,22.918 11.888,22.918 z" fill="#FF8533" />
<path id="Color-Fill-13" d="M63.794,103.069 L62.637,102.518 L62.637,102.707 L91.973,116.734 L121.308,102.707 L121.308,75.567 L63.794,103.069 z" fill="#C3C8D0" />
<path id="Color-Fill-14" d="M134.016,191.110 C107.001,189.880 107.001,189.880 107.001,189.880 C107.001,189.880 97.483,164.565 97.483,164.565 C96.613,162.248 94.449,160.751 91.973,160.751 C89.498,160.751 87.335,162.248 86.464,164.565 C76.947,189.880 76.947,189.880 76.947,189.880 C76.947,189.880 49.932,191.110 49.932,191.110 C47.460,191.224 45.366,192.818 44.602,195.173 C43.837,197.528 44.592,200.047 46.526,201.595 C67.660,218.469 67.660,218.469 67.660,218.469 C67.660,218.469 60.480,244.545 60.480,244.545 C59.824,246.932 60.692,249.415 62.696,250.873 C63.735,251.627 64.944,252.006 66.155,252.006 C67.277,252.006 68.402,251.680 69.397,251.024 C91.973,236.139 91.973,236.139 91.973,236.139 C91.973,236.139 114.551,251.022 114.551,251.022 C116.618,252.386 119.248,252.328 121.252,250.870 C123.255,249.415 124.124,246.932 123.465,244.545 C116.288,218.469 116.288,218.469 116.288,218.469 C116.288,218.469 137.422,201.593 137.422,201.593 C139.356,200.047 140.113,197.528 139.345,195.173 C138.580,192.818 136.488,191.224 134.016,191.110 zM110.123,213.059 C108.282,214.531 107.497,216.949 108.122,219.222 C114.139,241.080 114.139,241.080 114.139,241.080 C114.139,241.080 95.215,228.602 95.215,228.602 C93.245,227.305 90.701,227.305 88.733,228.602 C69.809,241.080 69.809,241.080 69.809,241.080 C69.809,241.080 75.824,219.222 75.824,219.222 C76.450,216.949 75.664,214.531 73.822,213.059 C56.109,198.914 56.109,198.914 56.109,198.914 C56.109,198.914 78.753,197.881 78.753,197.881 C81.107,197.774 83.166,196.279 83.996,194.073 C91.973,172.852 91.973,172.852 91.973,172.852 C91.973,172.852 99.952,194.073 99.952,194.073 C100.782,196.281 102.838,197.774 105.193,197.881 C127.839,198.914 127.839,198.914 127.839,198.914 C127.839,198.914 110.123,213.059 110.123,213.059 z" fill="#000000" />
<path id="Color-Fill-15" d="M168.481,23.088 C168.481,23.088 171.937,23.088 171.937,23.088 C178.064,23.088 183.049,18.102 183.049,11.973 C183.049,5.846 178.064,0.860 171.935,0.860 C11.762,0.860 11.762,0.860 11.762,0.860 C5.635,0.860 0.650,5.846 0.650,11.973 C0.650,18.102 5.635,23.088 11.762,23.088 C15.218,23.088 15.218,23.088 15.218,23.088 C15.218,23.088 15.218,69.790 15.218,69.790 C15.218,76.416 19.080,82.545 25.058,85.405 C74.257,108.930 74.257,108.930 74.257,108.930 C72.628,111.193 71.705,113.952 71.705,116.879 C71.705,125.231 71.705,125.231 71.705,125.231 C71.705,130.666 74.881,135.370 79.520,137.547 C66.592,171.931 66.592,171.931 66.592,171.931 C66.592,171.931 20.930,174.008 20.930,174.008 C16.814,174.195 13.330,176.849 12.058,180.768 C10.784,184.688 12.041,188.881 15.262,191.453 C50.981,219.978 50.981,219.978 50.981,219.978 C50.981,219.978 38.848,264.054 38.848,264.054 C37.754,268.028 39.203,272.160 42.535,274.582 C44.266,275.840 46.275,276.471 48.290,276.471 C50.159,276.471 52.030,275.928 53.687,274.837 C91.848,249.675 91.848,249.675 91.848,249.675 C91.848,249.675 130.012,274.837 130.012,274.837 C133.452,277.104 137.829,277.005 141.164,274.582 C144.496,272.160 145.944,268.028 144.851,264.054 C140.177,247.083 140.177,247.083 140.177,247.083 C139.587,244.932 137.362,243.670 135.216,244.261 C133.065,244.854 131.803,247.076 132.394,249.225 C137.066,266.197 137.066,266.197 137.066,266.197 C137.343,267.200 136.780,267.788 136.418,268.049 C136.057,268.312 135.325,268.665 134.457,268.093 C94.071,241.468 94.071,241.468 94.071,241.468 C92.723,240.579 90.976,240.579 89.628,241.468 C49.242,268.093 49.242,268.093 49.242,268.093 C48.376,268.665 47.642,268.312 47.280,268.049 C46.921,267.788 46.357,267.198 46.633,266.197 C59.473,219.556 59.473,219.556 59.473,219.556 C59.902,218.000 59.361,216.336 58.100,215.329 C20.300,185.144 20.300,185.144 20.300,185.144 C19.490,184.495 19.600,183.687 19.736,183.264 C19.875,182.840 20.260,182.123 21.298,182.074 C69.619,179.875 69.619,179.875 69.619,179.875 C71.232,179.801 72.644,178.773 73.212,177.261 C90.238,131.981 90.238,131.981 90.238,131.981 C90.604,131.009 91.405,130.864 91.850,130.864 C92.296,130.864 93.097,131.009 93.463,131.981 C110.487,177.261 110.487,177.261 110.487,177.261 C111.056,178.773 112.469,179.801 114.082,179.875 C162.403,182.074 162.403,182.074 162.403,182.074 C163.441,182.123 163.826,182.840 163.965,183.264 C164.101,183.687 164.211,184.495 163.401,185.144 C125.601,215.329 125.601,215.329 125.601,215.329 C124.340,216.336 123.799,218.000 124.228,219.556 C128.122,233.701 128.122,233.701 128.122,233.701 C128.713,235.850 130.937,237.114 133.086,236.521 C135.235,235.928 136.498,233.707 135.905,231.556 C132.718,219.978 132.718,219.978 132.718,219.978 C132.718,219.978 168.439,191.453 168.439,191.453 C171.658,188.881 172.915,184.688 171.643,180.768 C170.369,176.849 166.887,174.195 162.770,174.008 C117.109,171.929 117.109,171.929 117.109,171.929 C117.109,171.929 104.181,137.545 104.181,137.545 C108.819,135.370 111.996,130.666 111.996,125.231 C111.996,116.879 111.996,116.879 111.996,116.879 C111.996,113.950 111.073,111.191 109.444,108.928 C158.643,85.403 158.643,85.403 158.643,85.403 C164.618,82.545 168.481,76.416 168.481,69.790 C168.481,69.790 168.481,23.088 168.481,23.088 zM11.762,8.934 C171.935,8.934 171.935,8.934 171.935,8.934 C173.611,8.934 174.975,10.297 174.975,11.973 C174.975,13.649 173.611,15.013 171.935,15.013 C11.762,15.013 11.762,15.013 11.762,15.013 C10.086,15.011 8.724,13.649 8.724,11.973 C8.724,10.297 10.086,8.934 11.762,8.934 zM23.291,23.088 L58.476,23.088 C58.476,23.088 58.476,36.756 58.476,36.756 C58.476,38.985 60.284,40.793 62.513,40.793 C64.743,40.793 66.549,38.985 66.549,36.756 C66.549,23.088 66.549,23.088 66.549,23.088 L117.149,23.088 L117.149,96.295 L91.848,108.392 L66.549,96.293 C66.549,96.293 66.549,53.218 66.549,53.218 C66.549,50.987 64.741,49.181 62.513,49.181 C60.284,49.181 58.476,50.987 58.476,53.218 C58.476,92.434 58.476,92.434 58.476,92.434 C58.476,92.434 28.539,78.119 28.539,78.119 C25.352,76.594 23.291,73.325 23.291,69.790 C23.291,69.790 23.291,23.088 23.291,23.088 zM103.921,125.231 C103.921,127.210 102.884,128.946 101.314,129.924 C101.019,129.138 101.019,129.138 101.019,129.138 C99.569,125.281 95.969,122.790 91.848,122.790 C87.730,122.790 84.130,125.281 82.680,129.138 C82.383,129.924 82.383,129.924 82.383,129.924 C80.813,128.946 79.778,127.210 79.778,125.231 C79.778,116.879 79.778,116.879 79.778,116.879 C79.778,115.165 80.558,113.592 81.849,112.560 C90.107,116.509 90.107,116.509 90.107,116.509 C90.658,116.772 91.253,116.904 91.848,116.904 C92.445,116.904 93.040,116.772 93.591,116.509 C101.848,112.560 101.848,112.560 101.848,112.560 C103.141,113.592 103.921,115.165 103.921,116.879 C103.921,116.879 103.921,125.231 103.921,125.231 zM125.223,92.432 L125.223,23.088 L160.407,23.088 C160.407,23.088 160.407,69.790 160.407,69.790 C160.407,73.325 158.347,76.594 155.160,78.119 C155.160,78.119 125.223,92.432 125.223,92.432 z" fill="#000000" />
</g>
</svg>
