<svg height="512pt" viewBox="-49 0 512 512" width="512pt" xmlns="http://www.w3.org/2000/svg"><path d="m215.128906 13.476562 41.03125 109.121094 116.460938 5.300782c8.5.386718 11.984375 11.105468 5.332031 16.414062l-91.101563 72.742188 37.453126 136.039062-117.804688-77.660156-117.804688 77.660156 37.453126-136.039062-91.101563-72.742188c-6.652344-5.308594-3.167969-16.027344 5.332031-16.414062l116.460938-5.300782 41.03125-109.121094c2.996094-7.96875 14.261718-7.96875 17.257812 0zm0 0" fill="#99e2ff"/><path d="m372.621094 127.898438-42.234375-1.921876-96.535157 77.078126 30.410157 110.457031 60.042969 39.582031-37.453126-136.039062 91.101563-72.742188c6.652344-5.308594 3.167969-16.027344-5.332031-16.414062zm0 0" fill="#6bd"/><path d="m204.628906 228.15625-42.445312 27.980469c-2.617188 1.722656-5.976563-.714844-5.144532-3.742188l13.492188-49.011719c.363281-1.308593-.09375-2.707031-1.152344-3.558593l-39.730468-31.71875c-2.449219-1.957031-1.167969-5.90625 1.96875-6.050781l50.785156-2.3125c1.355468-.0625 2.546875-.925782 3.023437-2.199219l17.894531-47.582031c1.105469-2.9375 5.257813-2.9375 6.359376 0l17.894531 47.582031c.476562 1.273437 1.667969 2.136719 3.023437 2.199219l50.789063 2.3125c3.132812.140624 4.414062 4.09375 1.964843 6.050781l-39.726562 31.71875c-1.0625.847656-1.519531 2.246093-1.15625 3.558593l13.492188 49.011719c.835937 3.023438-2.527344 5.464844-5.144532 3.738281l-42.445312-27.980468c-1.136719-.746094-2.605469-.746094-3.742188.003906zm0 0" fill="#e4eaf7"/><path d="m32.355469 353.09375h348.289062v135.992188h-348.289062zm0 0" fill="#fcdf6c"/><path d="m327.667969 353.09375h52.976562v135.992188h-52.976562zm0 0" fill="#f4b425"/><path d="m390.085938 368.511719h-367.171876c-8.511718 0-15.414062-6.902344-15.414062-15.417969 0-8.511719 6.902344-15.414062 15.414062-15.414062h367.171876c8.511718 0 15.414062 6.902343 15.414062 15.414062 0 8.515625-6.902344 15.417969-15.414062 15.417969zm0 0" fill="#ff8533"/><path d="m390.085938 504.5h-367.171876c-8.511718 0-15.414062-6.902344-15.414062-15.414062 0-8.515626 6.902344-15.414063 15.414062-15.414063h367.171876c8.511718 0 15.414062 6.898437 15.414062 15.414063 0 8.511718-6.902344 15.414062-15.414062 15.414062zm0 0" fill="#ff8533"/><path d="m289.464844 443.3125h-165.929688c-4.609375 0-8.347656-3.738281-8.347656-8.347656v-27.75c0-4.609375 3.738281-8.347656 8.347656-8.347656h165.929688c4.609375 0 8.347656 3.738281 8.347656 8.347656v27.75c0 4.609375-3.738281 8.347656-8.347656 8.347656zm0 0" fill="#f8fbff"/><path d="m289.464844 398.867188h-44.628906v44.445312h44.628906c4.609375 0 8.347656-3.738281 8.347656-8.347656v-27.75c0-4.609375-3.738281-8.347656-8.347656-8.347656zm0 0" fill="#e4eaf7"/><path d="m390.085938 466.167969h-1.941407v-90.15625h1.941407c12.632812 0 22.914062-10.28125 22.914062-22.917969 0-12.632812-10.28125-22.914062-22.914062-22.914062h-367.171876c-12.632812 0-22.914062 10.28125-22.914062 22.914062 0 12.636719 10.28125 22.917969 22.914062 22.917969h1.941407v90.15625h-1.941407c-12.632812 0-22.914062 10.28125-22.914062 22.917969 0 12.636718 10.28125 22.914062 22.914062 22.914062h367.171876c12.632812 0 22.914062-10.277344 22.914062-22.914062 0-12.636719-10.28125-22.917969-22.914062-22.917969zm-375.085938-113.074219c0-4.363281 3.550781-7.914062 7.917969-7.914062h367.167969c4.363281 0 7.914062 3.550781 7.914062 7.914062 0 4.367188-3.550781 7.917969-7.914062 7.917969h-367.171876c-4.363281 0-7.914062-3.550781-7.914062-7.917969zm24.855469 22.917969h333.289062v90.15625h-333.289062zm350.230469 120.988281h-367.171876c-4.363281 0-7.914062-3.550781-7.914062-7.914062 0-4.367188 3.550781-7.917969 7.914062-7.917969h367.171876c4.363281 0 7.914062 3.550781 7.914062 7.917969 0 4.363281-3.550781 7.914062-7.914062 7.914062zm0 0"/><path d="m289.464844 391.367188h-119.820313c-4.140625 0-7.5 3.355468-7.5 7.5 0 4.144531 3.359375 7.5 7.5 7.5h119.820313c.46875 0 .847656.378906.847656.847656v27.75c0 .464844-.378906.847656-.847656.847656h-165.929688c-.46875 0-.847656-.382812-.847656-.847656v-27.75c0-.46875.378906-.847656.847656-.847656h16.109375c4.140625 0 7.5-3.355469 7.5-7.5 0-4.144532-3.359375-7.5-7.5-7.5h-16.109375c-8.738281 0-15.847656 7.109374-15.847656 15.847656v27.75c0 8.738281 7.109375 15.847656 15.847656 15.847656h165.929688c8.738281 0 15.847656-7.109375 15.847656-15.847656v-27.75c0-8.738282-7.109375-15.847656-15.847656-15.847656zm0 0"/><path d="m291.59375 162.082031c-1.414062-4.359375-5.289062-7.3125-9.867188-7.519531l-48.085937-2.191406-16.941406-45.054688c-1.613281-4.289062-5.617188-7.058594-10.199219-7.058594s-8.585938 2.769532-10.199219 7.0625l-16.941406 45.050782-48.082031 2.191406c-4.582032.207031-8.453125 3.160156-9.871094 7.519531s-.015625 9.023438 3.566406 11.882813l37.613282 30.035156-12.777344 46.40625c-1.214844 4.417969.394531 9.015625 4.101562 11.707031 1.925782 1.398438 4.160156 2.101563 6.402344 2.101563 2.078125 0 4.160156-.601563 6-1.816406l40.1875-26.492188 40.1875 26.492188c3.824219 2.519531 8.695312 2.410156 12.402344-.285157 3.710937-2.691406 5.320312-7.289062 4.101562-11.707031l-12.777344-46.40625 37.617188-30.035156c3.582031-2.859375 4.980469-7.523438 3.5625-11.882813zm-52.648438 31.882813c-3.410156 2.722656-4.867187 7.199218-3.710937 11.410156l10.601563 38.496094-33.335938-21.976563c-1.820312-1.203125-3.910156-1.804687-6-1.804687-2.085938 0-4.175781.601562-5.996094 1.804687l-33.335937 21.972657 10.597656-38.492188c1.160156-4.207031-.296875-8.6875-3.707031-11.410156l-31.203125-24.914063 39.886719-1.816406c4.359374-.195313 8.167968-2.964844 9.707031-7.050781l14.050781-37.375 14.054688 37.378906c1.535156 4.082031 5.347656 6.851562 9.703124 7.046875l39.886719 1.816406zm0 0"/><path d="m30.367188 150.175781 87.238281 69.65625-23.914063 86.855469c-1.101562 3.996094 1.246094 8.125 5.238282 9.222656 3.996093 1.101563 8.125-1.246094 9.222656-5.238281l25.226562-91.625c.796875-2.894531-.207031-5.980469-2.550781-7.851563l-91.101563-72.742187c-.617187-.492187-.808593-1.125-.5625-1.875.242188-.753906.765626-1.152344 1.554688-1.1875l116.460938-5.300781c2.996093-.140625 5.625-2.046875 6.679687-4.855469l41.03125-109.121094c.277344-.738281.820313-1.113281 1.609375-1.113281s1.332031.375 1.609375 1.113281l41.027344 109.121094c1.058593 2.808594 3.683593 4.714844 6.679687 4.855469l116.460938 5.300781c.789062.035156 1.3125.433594 1.558594 1.1875.242187.75.054687 1.382813-.5625 1.875l-91.101563 72.742187c-2.34375 1.871094-3.347656 4.957032-2.554687 7.851563l25.230468 91.625c.914063 3.324219 3.933594 5.511719 7.226563 5.511719.65625 0 1.328125-.089844 1.992187-.273438 3.996094-1.097656 6.339844-5.226562 5.242188-9.222656l-23.914063-86.855469 87.238281-69.65625c5.496094-4.390625 7.640626-11.542969 5.46875-18.234375-2.175781-6.6875-8.117187-11.214844-15.140624-11.535156l-111.523438-5.074219-39.289062-104.496093c-2.472657-6.582032-8.617188-10.835938-15.648438-10.835938s-13.175781 4.253906-15.648438 10.835938l-39.292968 104.492187-111.519532 5.078125c-7.023437.320312-12.96875 4.847656-15.140624 11.535156-2.171876 6.6875-.027344 13.84375 5.46875 18.234375zm0 0"/><path d="m261.058594 302.417969-50.429688-33.246094c-2.503906-1.648437-5.753906-1.648437-8.257812 0l-50.429688 33.246094c-3.457031 2.277343-4.414062 6.933593-2.132812 10.390625 2.277344 3.457031 6.929687 4.410156 10.386718 2.132812l46.304688-30.523437 46.304688 30.523437c1.269531.835938 2.703124 1.238282 4.121093 1.238282 2.433594 0 4.824219-1.1875 6.265625-3.371094 2.28125-3.457032 1.324219-8.113282-2.132812-10.390625zm0 0"/></svg>