<svg height="512pt" viewBox="0 -37 512.00261 512" width="512pt" xmlns="http://www.w3.org/2000/svg"><path d="m455.140625 148.832031c-17.699219 3.730469-27.273437 23.007813-19.550781 39.363281 4.734375 10.027344 3.105468 21.90625-4.15625 30.289063l-10.316406 11.921875c-27.558594 31.828125-79.113282 22.722656-94.097657-16.621094l-27.507812-72.199218c-4.136719-10.859376-1.328125-23.140626 7.117187-31.125 10.644532-10.0625 12.019532-26.515626 3.199219-38.207032l-45.863281-60.773437c-3.992188-5.289063-11.9375-5.289063-15.929688 0l-45.863281 60.773437c-8.820313 11.691406-7.445313 28.148438 3.199219 38.207032 8.445312 7.984374 11.25 20.265624 7.113281 31.125l-27.503906 72.199218c-14.988281 39.34375-66.539063 48.449219-94.097657 16.621094l-10.316406-11.921875c-7.261718-8.382813-8.890625-20.261719-4.15625-30.289063 7.722656-16.355468-1.851562-35.632812-19.550781-39.363281l-37.304687-7.863281c-7.785157-1.640625-14.269532 6.046875-11.332032 13.445312l93.660156 250.210938h308.238282l93.660156-250.210938c2.933594-7.398437-3.546875-15.085937-11.332031-13.445312zm0 0" fill="#fcdf6c"/><path d="m256.835938 72.253906c8.824218 11.691406 7.445312 28.144532-3.199219 38.207032-8.441407 7.984374-11.25 20.265624-7.113281 31.125l27.503906 72.199218c12.480468 32.761719 50.316406 44.550782 78.539062 29.195313-11.152344-5.964844-20.457031-15.835938-25.546875-29.195313l-27.507812-72.199218c-4.136719-10.859376-1.328125-23.140626 7.117187-31.125 10.644532-10.0625 12.019532-26.515626 3.199219-38.207032l-45.863281-60.773437c-3.992188-5.289063-11.9375-5.289063-15.929688 0l-18.53125 24.554687zm0 0" fill="#f4b425"/><path d="m492.445312 140.96875-37.304687 7.863281c-17.695313 3.730469-27.273437 23.007813-19.550781 39.363281 4.734375 10.027344 3.105468 21.90625-4.152344 30.289063l-9.394531 10.847656-64.914063 175.292969h52.988282l93.664062-250.210938c2.933594-7.398437-3.546875-15.085937-11.335938-13.445312zm0 0" fill="#f4b425"/><path d="m419.886719 430.804688h-327.773438c-10.039062 0-18.179687-8.136719-18.179687-18.179688 0-10.039062 8.136718-18.175781 18.179687-18.175781h327.773438c10.039062 0 18.179687 8.136719 18.179687 18.175781s-8.140625 18.179688-18.179687 18.179688zm0 0" fill="#ff8533"/><path d="m259.746094 251.800781 11.832031 31.46875 33.582031 1.527344c3.695313.167969 5.207032 4.824219 2.316406 7.128906l-26.269531 20.976563 8.921875 32.414062c.984375 3.5625-2.976562 6.4375-6.0625 4.402344l-28.066406-18.503906-28.070312 18.503906c-3.082032 2.035156-7.042969-.839844-6.0625-4.40625l8.925781-32.410156-26.269531-20.976563c-2.890626-2.304687-1.378907-6.960937 2.3125-7.128906l33.585937-1.527344 11.832031-31.46875c1.296875-3.457031 6.191406-3.457031 7.492188 0zm0 0" fill="#fc5b8c"/><path d="m233.460938 86.21875 17.628906-23.363281c2.460937-3.257813 7.355468-3.257813 9.816406 0l17.632812 23.363281c1.652344 2.191406 1.652344 5.214844 0 7.40625l-17.632812 23.363281c-2.460938 3.261719-7.355469 3.261719-9.816406 0l-17.628906-23.363281c-1.65625-2.191406-1.65625-5.214844 0-7.40625zm0 0" fill="#ffa63b"/><path d="m419.898438 438.316406h-327.792969c-14.160157 0-25.679688-11.519531-25.679688-25.679687 0-14.160157 11.519531-25.679688 25.679688-25.679688h327.792969c14.15625 0 25.675781 11.519531 25.675781 25.679688 0 14.160156-11.519531 25.679687-25.675781 25.679687zm-327.792969-36.359375c-5.890625 0-10.679688 4.792969-10.679688 10.679688s4.789063 10.679687 10.679688 10.679687h327.792969c5.886718 0 10.675781-4.792968 10.675781-10.679687s-4.789063-10.679688-10.675781-10.679688zm0 0"/><path d="m225.722656 357.910156c-2.367187 0-4.726562-.742187-6.757812-2.21875-3.914063-2.84375-5.613282-7.695312-4.328125-12.363281l7.613281-27.644531-22.410156-17.894532c-3.78125-3.019531-5.257813-7.941406-3.761719-12.542968 1.492187-4.601563 5.582031-7.71875 10.417969-7.9375l28.644531-1.304688 10.09375-26.839844c1.703125-4.53125 5.929687-7.457031 10.765625-7.457031 4.839844 0 9.066406 2.925781 10.769531 7.457031l10.089844 26.839844 28.644531 1.304688c4.835938.21875 8.925782 3.332031 10.421875 7.9375 1.492188 4.601562.019531 9.523437-3.765625 12.542968l-22.40625 17.894532 7.609375 27.644531c1.285157 4.664063-.414062 9.515625-4.328125 12.359375-3.914062 2.84375-9.054687 2.960938-13.09375.296875l-23.941406-15.777344-23.941406 15.78125c-1.945313 1.28125-4.140625 1.917969-6.335938 1.921875zm-9.257812-66.039062 19.007812 15.175781c2.34375 1.871094 3.347656 4.960937 2.550782 7.851563l-6.457032 23.445312 20.304688-13.382812c2.503906-1.652344 5.753906-1.652344 8.257812 0l20.304688 13.382812-6.453125-23.445312c-.800781-2.890626.207031-5.980469 2.550781-7.851563l19.003906-15.175781-24.292968-1.105469c-3-.136719-5.625-2.046875-6.679688-4.851563l-8.5625-22.765624-8.558594 22.765624c-1.058594 2.804688-3.683594 4.714844-6.679687 4.851563zm0 0"/><path d="m256 126.929688c-4.320312 0-8.292969-1.980469-10.894531-5.429688l-17.632813-23.363281c-3.652344-4.84375-3.652344-11.601563 0-16.441407v-.003906l17.632813-23.363281c2.601562-3.449219 6.574219-5.425781 10.894531-5.425781s8.289062 1.976562 10.894531 5.425781l17.632813 23.363281c3.652344 4.84375 3.652344 11.605469 0 16.445313l-17.632813 23.363281c-2.601562 3.453125-6.574219 5.429688-10.894531 5.429688zm-15.9375-37.015626 15.9375 21.121094 15.9375-21.121094-15.9375-21.117187zm0 0"/><path d="m86.832031 371.957031c-3.035156 0-5.894531-1.859375-7.023437-4.871093l-78.605469-209.992188c-2.335937-5.972656-1.2226562-12.722656 2.917969-17.628906 4.152344-4.933594 10.652344-7.167969 16.96875-5.839844l37.304687 7.867188c10.695313 2.253906 19.617188 9.160156 24.480469 18.949218 4.863281 9.789063 4.976562 21.070313.308594 30.953125-3.464844 7.339844-2.269532 16.046875 3.042968 22.179688l10.320313 11.921875c11.199219 12.933594 27.945313 18.878906 44.789063 15.902344 16.847656-2.972657 30.542968-14.296876 36.632812-30.28125l27.503906-72.203126c3.070313-8.054687 1.007813-17.085937-5.257812-23.007812-13.4375-12.703125-15.171875-33.414062-4.03125-48.175781l45.867187-60.777344c3.332031-4.417969 8.417969-6.953125 13.949219-6.953125 5.535156 0 10.621094 2.535156 13.953125 6.953125l45.867187 60.777344c11.136719 14.761719 9.40625 35.472656-4.03125 48.175781-6.265624 5.921875-8.328124 14.953125-5.261718 23.007812l27.507812 72.203126c6.089844 15.988281 19.785156 27.308593 36.632813 30.28125 16.84375 2.976562 33.589843-2.96875 44.789062-15.902344l10.320313-11.921875c5.3125-6.132813 6.503906-14.839844 3.039062-22.179688-4.664062-9.882812-4.550781-21.164062.3125-30.953125 4.863282-9.789062 13.785156-16.695312 24.480469-18.949218l37.304687-7.867188c6.308594-1.328125 12.8125.90625 16.96875 5.839844 4.140626 4.910156 5.253907 11.660156 2.914063 17.636718l-78.535156 209.800782c-1.449219 3.878906-5.773438 5.847656-9.652344 4.394531s-5.847656-5.773437-4.394531-9.652344l78.554687-209.863281c.019531-.046875.035157-.089844.054688-.136719.476562-1.199219-.050781-2.085937-.410157-2.511719-.355468-.421874-1.144531-1.089843-2.40625-.828124l-37.304687 7.867187c-6.175781 1.300781-11.332031 5.289063-14.140625 10.945313-2.808594 5.652343-2.871094 12.167968-.179688 17.878906 6 12.703125 3.933594 27.777344-5.265624 38.398437l-10.320313 11.921875c-14.683594 16.964844-36.640625 24.761719-58.734375 20.859375-22.097656-3.902343-40.058594-18.75-48.046875-39.71875l-27.503906-72.203125c-5.234375-13.738281-1.710938-29.144531 8.972656-39.246094 7.875-7.445312 8.890625-19.585937 2.363281-28.242187l-45.867187-60.777344c-.644531-.855469-1.515625-.984375-1.976563-.984375-.460937 0-1.332031.128906-1.980468.988282l-45.863282 60.773437c-6.53125 8.65625-5.515625 20.796875 2.363282 28.242187 10.683593 10.101563 14.203124 25.507813 8.96875 39.246094l-27.503907 72.203125c-7.988281 20.96875-25.949219 35.816407-48.042969 39.71875-22.097656 3.898438-44.054687-3.898437-58.738281-20.859375l-10.320312-11.921875c-9.195313-10.621093-11.265625-25.695312-5.265625-38.398437 2.691406-5.710938 2.628906-12.226563-.179688-17.878906-2.808594-5.65625-7.960937-9.644532-14.140625-10.945313l-37.304687-7.863281c-1.261719-.265625-2.050782.402344-2.40625.828125-.355469.421875-.886719 1.3125-.410156 2.511719.019531.042968.035156.089843.054687.136718l78.625 210.042969c1.453125 3.882813-.515625 8.203125-4.394531 9.65625-.871094.320313-1.757813.472656-2.632813.472656zm0 0"/></svg>