<svg version="1.1" xmlns="http://www.w3.org/2000/svg" xmlns:xlink="http://www.w3.org/1999/xlink" width="62" height="78" viewBox="0 0 62 78">
<g id="Group-22">
<g id="Group-22">
<path id="Color-Fill-1" d="M36.499,57.889 L25.648,57.889 L28.998,35.794 L33.150,35.794 L36.499,57.889 z" fill="#F4B425" />
<path id="Color-Fill-2" d="M11.564,54.930 L50.583,54.930 L50.583,74.868 L11.564,74.868 L11.564,54.930 z" fill="#FCDF6C" />
<path id="Color-Fill-3" d="M42.467,54.930 L50.583,54.930 L50.583,74.868 L42.467,74.868 L42.467,54.930 z" fill="#F4B425" />
<path id="Color-Fill-4" d="M10.963,57.118 C9.748,57.118 8.763,56.139 8.763,54.930 C8.763,53.722 9.748,52.743 10.963,52.743 C51.184,52.743 51.184,52.743 51.184,52.743 C52.399,52.743 53.384,53.722 53.384,54.930 C53.384,56.139 52.399,57.118 51.184,57.118 C51.184,57.118 10.963,57.118 10.963,57.118 z" fill="#FF8533" />
<path id="Color-Fill-5" d="M10.963,77.056 C9.748,77.056 8.763,76.076 8.763,74.868 C8.763,73.660 9.748,72.680 10.963,72.680 C51.184,72.680 51.184,72.680 51.184,72.680 C52.399,72.680 53.384,73.660 53.384,74.868 C53.384,76.076 52.399,77.056 51.184,77.056 C51.184,77.056 10.963,77.056 10.963,77.056 z" fill="#FF8533" />
<path id="Color-Fill-6" d="M16.613,3.710 C16.613,3.710 16.613,30.836 16.613,30.836 C16.613,38.370 31.090,42.901 31.090,42.901 C31.090,42.901 45.566,38.370 45.566,30.836 C45.566,3.710 45.566,3.710 45.566,3.710 L16.613,3.710 z" fill="#FCDF6C" />
<path id="Color-Fill-7" d="M37.450,3.710 C37.450,3.710 37.450,30.836 37.450,30.836 C37.450,35.741 31.314,39.373 27.031,41.310 C29.326,42.348 31.090,42.901 31.090,42.901 C31.090,42.901 45.566,38.370 45.566,30.836 C45.566,3.710 45.566,3.710 45.566,3.710 L37.450,3.710 z" fill="#F4B425" />
<path id="Color-Fill-8" d="M15.756,4.996 C14.495,4.996 13.473,3.980 13.473,2.726 C13.473,1.472 14.495,0.456 15.756,0.456 C46.392,0.456 46.392,0.456 46.392,0.456 C47.652,0.456 48.675,1.472 48.675,2.726 C48.675,3.980 47.652,4.996 46.392,4.996 C46.392,4.996 15.756,4.996 15.756,4.996 z" fill="#FF8533" />
<path id="Color-Fill-9" d="M21.635,68.422 C20.998,68.422 20.482,67.908 20.482,67.274 C20.482,62.525 20.482,62.525 20.482,62.525 C20.482,61.891 20.998,61.377 21.635,61.377 C40.512,61.377 40.512,61.377 40.512,61.377 C41.149,61.377 41.666,61.891 41.666,62.525 C41.666,67.274 41.666,67.274 41.666,67.274 C41.666,67.908 41.149,68.422 40.512,68.422 C40.512,68.422 21.635,68.422 21.635,68.422 z" fill="#F8FBFF" />
<path id="Color-Fill-10" d="M51.184,51.587 C36.719,51.587 36.719,51.587 36.719,51.587 C36.719,51.587 35.897,46.162 35.897,46.162 C35.801,45.530 35.210,45.096 34.575,45.190 C33.940,45.286 33.503,45.874 33.598,46.506 C34.368,51.587 34.368,51.587 34.368,51.587 L27.779,51.587 C27.779,51.587 28.551,46.494 28.551,46.494 C28.647,45.863 28.210,45.273 27.575,45.179 C26.940,45.083 26.348,45.518 26.252,46.149 C25.428,51.587 25.428,51.587 25.428,51.587 C25.428,51.587 10.963,51.587 10.963,51.587 C9.110,51.587 7.601,53.087 7.601,54.930 C7.601,56.584 8.814,57.961 10.402,58.228 C10.402,71.571 10.402,71.571 10.402,71.571 C8.814,71.837 7.601,73.214 7.601,74.868 C7.601,76.711 9.110,78.212 10.963,78.212 C51.184,78.212 51.184,78.212 51.184,78.212 C53.038,78.212 54.546,76.711 54.546,74.868 C54.546,73.214 53.333,71.837 51.746,71.571 C51.746,58.228 51.746,58.228 51.746,58.228 C53.333,57.961 54.546,56.584 54.546,54.930 C54.546,53.087 53.038,51.587 51.184,51.587 zM12.727,71.524 L12.727,58.274 L49.421,58.274 L49.421,71.524 L12.727,71.524 zM10.963,53.899 C51.184,53.899 51.184,53.899 51.184,53.899 C51.756,53.899 52.222,54.361 52.222,54.930 C52.222,55.499 51.756,55.962 51.184,55.962 C10.963,55.962 10.963,55.962 10.963,55.962 C10.391,55.962 9.926,55.500 9.926,54.930 C9.926,54.361 10.391,53.899 10.963,53.899 zM51.184,75.900 C10.963,75.900 10.963,75.900 10.963,75.900 C10.391,75.900 9.926,75.437 9.926,74.868 C9.926,74.299 10.391,73.836 10.963,73.836 C51.184,73.836 51.184,73.836 51.184,73.836 C51.756,73.836 52.222,74.299 52.222,74.868 C52.222,75.437 51.757,75.900 51.184,75.900 z" fill="#000000" />
<path id="Color-Fill-11" d="M28.754,60.221 C28.112,60.221 27.591,60.738 27.591,61.377 C27.591,62.015 28.112,62.533 28.754,62.533 C40.504,62.525 40.504,62.525 40.504,62.525 L40.512,67.266 L21.644,67.274 L21.636,62.533 C21.636,62.533 24.103,62.533 24.103,62.533 C24.746,62.533 25.266,62.015 25.266,61.377 C25.266,60.738 24.746,60.221 24.103,60.221 C21.636,60.221 21.636,60.221 21.636,60.221 C20.359,60.221 19.319,61.254 19.319,62.525 C19.319,67.274 19.319,67.274 19.319,67.274 C19.319,68.545 20.359,69.578 21.636,69.578 C40.512,69.578 40.512,69.578 40.512,69.578 C41.789,69.578 42.828,68.545 42.828,67.274 C42.828,62.525 42.828,62.525 42.828,62.525 C42.828,61.254 41.789,60.221 40.512,60.221 C40.512,60.221 28.754,60.221 28.754,60.221 z" fill="#000000" />
<path id="Color-Fill-12" d="M55.110,3.463 C53.194,3.388 51.209,4.143 49.491,5.102 C49.656,4.702 49.747,4.264 49.747,3.805 C49.747,1.916 48.202,0.378 46.303,0.378 C15.666,0.378 15.666,0.378 15.666,0.378 C13.767,0.378 12.221,1.916 12.221,3.805 C12.221,4.259 12.311,4.694 12.473,5.091 C10.833,4.181 8.954,3.458 7.124,3.458 C7.035,3.458 6.944,3.459 6.855,3.463 C5.114,3.532 3.642,4.248 2.479,5.592 C0.754,7.584 -0.031,9.777 0.146,12.109 C0.580,17.824 6.627,22.985 11.043,26.753 C12.246,27.780 13.285,28.667 13.999,29.390 C14.865,30.266 15.361,31.497 15.361,32.770 C15.361,33.837 14.566,34.705 13.589,34.705 C12.612,34.705 11.817,33.837 11.817,32.770 C11.817,30.843 11.817,30.843 11.817,30.843 C11.817,30.205 11.296,29.687 10.655,29.687 C10.013,29.687 9.492,30.205 9.492,30.843 C9.492,32.769 9.492,32.769 9.492,32.769 C9.492,35.111 11.330,37.016 13.589,37.016 C14.706,37.016 15.719,36.551 16.459,35.797 C19.894,41.655 30.116,44.919 30.635,45.082 C30.749,45.118 30.866,45.136 30.984,45.136 C31.102,45.136 31.220,45.118 31.333,45.082 C31.852,44.919 42.075,41.655 45.509,35.797 C46.249,36.551 47.263,37.016 48.380,37.016 C50.639,37.016 52.476,35.111 52.476,32.769 C52.476,30.843 52.476,30.843 52.476,30.843 C52.476,30.205 51.956,29.687 51.314,29.687 C50.672,29.687 50.152,30.205 50.152,30.843 C50.152,32.769 50.152,32.769 50.152,32.769 C50.152,33.837 49.357,34.704 48.380,34.704 C47.402,34.704 46.607,33.837 46.607,32.769 C46.607,31.497 47.104,30.265 47.970,29.390 C48.683,28.666 49.723,27.780 50.926,26.753 C55.341,22.985 61.388,17.824 61.822,12.109 C62.000,9.777 61.215,7.584 59.489,5.592 C58.325,4.247 56.852,3.530 55.110,3.463 zM46.303,2.690 C46.920,2.690 47.422,3.190 47.422,3.805 C47.422,4.419 46.920,4.919 46.303,4.919 C15.666,4.919 15.666,4.919 15.666,4.919 C15.048,4.919 14.546,4.419 14.546,3.805 C14.546,3.190 15.048,2.690 15.666,2.690 C15.666,2.690 46.303,2.690 46.303,2.690 zM2.464,11.935 C2.333,10.213 2.914,8.631 4.240,7.100 C4.975,6.251 5.860,5.817 6.945,5.773 C9.925,5.654 13.721,8.531 15.345,10.011 C15.345,12.020 15.345,12.020 15.345,12.020 C15.295,12.384 15.126,12.722 14.858,12.990 C14.525,13.323 14.083,13.507 13.614,13.507 C12.659,13.507 11.883,12.736 11.883,11.787 C11.883,11.149 11.363,10.631 10.721,10.631 C10.080,10.631 9.559,11.149 9.559,11.787 C9.559,14.010 11.378,15.819 13.614,15.819 C14.222,15.819 14.810,15.687 15.345,15.437 C15.345,27.462 15.345,27.462 15.345,27.462 C14.598,26.742 13.642,25.925 12.557,24.999 C8.449,21.494 2.825,16.694 2.464,11.935 zM17.669,31.915 C17.669,7.231 17.669,7.231 17.669,7.231 L44.299,7.231 C44.299,7.231 44.299,31.915 44.299,31.915 C44.299,37.230 35.004,41.432 30.984,42.764 C26.964,41.432 17.669,37.230 17.669,31.915 zM49.412,24.999 C48.326,25.925 47.370,26.742 46.623,27.461 C46.623,15.433 46.623,15.433 46.623,15.433 C47.157,15.686 47.746,15.819 48.355,15.819 C50.591,15.819 52.409,14.010 52.409,11.787 C52.409,11.148 51.889,10.631 51.247,10.631 C50.605,10.631 50.085,11.148 50.085,11.787 C50.085,12.735 49.309,13.507 48.355,13.507 C47.896,13.507 47.465,13.329 47.142,13.006 C46.815,12.679 46.637,12.242 46.640,11.769 C46.640,10.024 46.640,10.024 46.640,10.024 C48.243,8.549 52.030,5.655 55.020,5.773 C56.105,5.815 56.992,6.249 57.728,7.100 C59.054,8.631 59.635,10.213 59.504,11.935 C59.143,16.694 53.519,21.494 49.412,24.999 z" fill="#000000" />
</g>
</g>
</svg>
