<svg version="1.1" xmlns="http://www.w3.org/2000/svg" xmlns:xlink="http://www.w3.org/1999/xlink" width="43" height="45" viewBox="0 0 43 45">
<path id="Forma-1-copy-7" d="M38.611,34.776 C35.351,40.994 28.800,45.007 21.531,45.007 C14.270,45.007 7.725,41.004 4.464,34.800 C1.887,33.997 -0.000,31.500 -0.000,28.548 C-0.000,27.008 0.518,25.595 1.375,24.479 C1.375,24.479 1.375,15.959 1.375,15.959 C1.375,11.207 3.776,8.900 7.434,7.828 C9.361,2.939 17.512,-1.005 25.167,0.471 C32.361,1.858 38.598,6.719 40.795,11.867 C41.077,12.460 41.289,13.124 41.426,13.862 C41.442,13.932 41.466,14.005 41.481,14.075 C41.496,14.160 41.491,14.224 41.503,14.305 C41.575,14.824 41.625,15.366 41.625,15.959 C41.625,15.959 41.625,24.475 41.625,24.475 C42.482,25.591 43.000,27.008 43.000,28.547 C43.000,31.471 41.150,33.949 38.611,34.776 zM36.760,25.995 C36.758,25.995 36.756,25.995 36.753,25.995 C36.741,24.188 36.386,21.419 35.769,19.507 C34.460,21.269 32.603,22.863 32.496,22.955 C32.402,23.034 32.287,23.074 32.171,23.074 C32.085,23.074 31.999,23.053 31.921,23.009 C31.739,22.904 31.641,22.695 31.680,22.489 C32.092,20.273 31.211,19.041 30.710,18.540 C27.720,21.524 23.135,21.980 20.611,21.980 C19.130,21.980 18.136,21.835 18.095,21.828 C17.896,21.798 17.733,21.652 17.685,21.458 C17.637,21.264 17.710,21.061 17.871,20.940 C20.044,19.321 19.738,16.639 19.536,15.653 C14.736,16.139 12.911,21.201 12.892,21.253 C12.826,21.443 12.650,21.575 12.447,21.586 C12.342,21.592 12.240,21.595 12.138,21.595 C12.136,21.595 12.136,21.595 12.136,21.595 C9.949,21.595 8.463,20.333 7.491,18.984 C6.752,20.879 6.329,24.019 6.313,26.007 C6.289,26.005 6.266,25.999 6.244,25.999 C5.000,25.999 4.002,27.138 4.002,28.546 C4.002,29.954 5.000,31.093 6.244,31.093 C6.555,31.093 6.848,31.023 7.118,30.894 C9.149,36.786 14.830,41.031 21.533,41.031 C28.229,41.031 33.901,36.793 35.940,30.912 C36.194,31.028 36.468,31.093 36.758,31.093 C38.002,31.093 39.002,29.950 39.002,28.542 C39.002,27.134 38.004,25.995 36.760,25.995 zM28.292,27.299 C27.049,27.299 26.042,26.298 26.042,25.063 C26.042,23.828 27.049,22.827 28.292,22.827 C29.534,22.827 30.542,23.828 30.542,25.063 C30.542,26.298 29.534,27.299 28.292,27.299 zM21.500,32.151 C20.119,32.151 19.000,31.706 19.000,31.157 C19.000,30.608 20.119,30.163 21.500,30.163 C22.881,30.163 24.000,30.608 24.000,31.157 C24.000,31.706 22.881,32.151 21.500,32.151 zM14.708,27.299 C13.465,27.299 12.458,26.298 12.458,25.063 C12.458,23.828 13.465,22.827 14.708,22.827 C15.950,22.827 16.958,23.828 16.958,25.063 C16.958,26.298 15.950,27.299 14.708,27.299 z" fill="#5A6389" />
</svg>
