<svg version="1.1" xmlns="http://www.w3.org/2000/svg" xmlns:xlink="http://www.w3.org/1999/xlink" width="41" height="41" viewBox="0 0 41 41">
<g id="coin">
<g id="Group-7">
<path id="XMLID_122_" d="M31.474,31.460 C24.180,38.750 13.380,39.975 6.338,34.662 C6.770,35.234 7.240,35.784 7.759,36.302 C14.659,43.199 26.647,42.400 34.534,34.518 C42.421,26.635 43.220,14.654 36.319,7.757 C35.801,7.239 35.251,6.769 34.679,6.338 C39.995,13.376 38.768,24.169 31.474,31.460 " fill="#F4BF1A" />
<path id="XMLID_121_" d="M33.259,4.698 C40.160,11.596 39.361,23.577 31.474,31.460 C23.587,39.342 11.599,40.141 4.698,33.244 C-2.203,26.346 -1.404,14.365 6.483,6.483 C14.371,-1.400 26.358,-2.199 33.259,4.698 " fill="#FFD949" />
<path id="XMLID_89_" d="M16.452,35.053 C12.670,35.053 9.221,33.686 6.738,31.205 C0.973,25.443 1.773,15.267 8.523,8.522 C12.104,4.942 16.836,2.890 21.505,2.890 C25.286,2.890 28.735,4.256 31.219,6.738 C36.984,12.500 36.183,22.676 29.434,29.421 C25.853,32.999 21.122,35.053 16.452,35.053 " fill="#F4BF1A" />
<path id="XMLID_119_" d="M31.963,30.929 C31.963,30.929 35.033,33.997 35.033,33.997 C35.365,33.644 35.686,33.284 35.991,32.916 C32.927,29.853 32.927,29.853 32.927,29.853 C32.622,30.220 32.295,30.576 31.963,30.929 " fill="#DCA815" />
<path id="XMLID_118_" d="M29.294,33.358 C29.294,33.358 32.365,36.428 32.365,36.428 C32.744,36.134 33.114,35.824 33.479,35.502 C30.412,32.438 30.412,32.438 30.412,32.438 C30.047,32.760 29.673,33.064 29.294,33.358 " fill="#DCA815" />
<path id="XMLID_117_" d="M34.235,28.102 C34.235,28.102 37.304,31.169 37.304,31.169 C37.583,30.758 37.847,30.341 38.094,29.920 C35.031,26.859 35.031,26.859 35.031,26.859 C34.783,27.281 34.513,27.693 34.235,28.102 " fill="#DCA815" />
<path id="XMLID_116_" d="M36.070,24.838 C36.070,24.838 39.143,27.908 39.143,27.908 C39.360,27.431 39.556,26.949 39.736,26.463 C36.667,23.396 36.667,23.396 36.667,23.396 C36.488,23.882 36.286,24.362 36.070,24.838 " fill="#DCA815" />
<path id="XMLID_115_" d="M26.210,35.374 C26.210,35.374 29.280,38.442 29.280,38.442 C29.715,38.207 30.146,37.960 30.570,37.692 C27.498,34.623 27.498,34.623 27.498,34.623 C27.074,34.890 26.645,35.139 26.210,35.374 " fill="#DCA815" />
<path id="XMLID_114_" d="M22.649,36.912 C22.649,36.912 25.718,39.980 25.718,39.980 C26.218,39.815 26.717,39.635 27.210,39.431 C24.142,36.365 24.142,36.365 24.142,36.365 C23.648,36.568 23.151,36.749 22.649,36.912 " fill="#DCA815" />
<path id="XMLID_113_" d="M17.508,37.891 C17.508,37.891 20.580,40.961 20.580,40.961 C21.194,40.927 21.810,40.863 22.427,40.769 C19.354,37.697 19.354,37.697 19.354,37.697 C18.737,37.790 18.122,37.857 17.508,37.891 " fill="#DCA815" />
<path id="XMLID_112_" d="M11.834,37.317 C11.834,37.317 14.914,40.395 14.914,40.395 C15.736,40.615 16.577,40.775 17.431,40.873 C14.352,37.795 14.352,37.795 14.352,37.795 C13.498,37.696 12.657,37.539 11.834,37.317 " fill="#DCA815" />
<path id="XMLID_111_" d="M37.569,20.220 C37.569,20.220 40.636,23.285 40.636,23.285 C40.753,22.695 40.843,22.105 40.905,21.515 C37.834,18.446 37.834,18.446 37.834,18.446 C37.772,19.037 37.685,19.628 37.569,20.220 " fill="#DCA815" />
<path id="XMLID_88_" d="M40.717,16.230 C37.629,13.144 37.629,13.144 37.629,13.144 C37.773,13.912 37.883,14.688 37.924,15.478 C40.984,18.536 40.984,18.536 40.984,18.536 C40.943,17.758 40.857,16.987 40.717,16.230 z" fill="#DCA815" />
<path id="XMLID_105_" d="M27.369,16.085 C27.196,11.888 24.103,10.268 19.364,10.263 C19.154,10.263 18.948,10.269 18.745,10.283 C17.269,10.380 15.894,10.146 14.900,9.474 C14.499,9.202 14.179,8.918 13.976,8.620 C13.884,8.484 13.630,8.578 13.616,8.751 C13.593,9.050 13.577,9.399 13.583,9.784 C13.603,11.242 13.458,11.025 12.569,12.402 C12.078,13.163 11.686,14.016 11.394,14.934 C10.748,15.198 10.222,15.764 10.071,16.460 C9.872,17.384 9.872,17.384 9.872,17.384 C9.692,18.218 10.090,19.004 10.803,19.354 C10.912,21.431 11.680,23.290 13.525,24.591 C13.294,25.847 13.294,25.847 13.294,25.847 C13.234,26.171 12.999,26.425 12.691,26.501 C8.385,27.549 8.385,27.549 8.385,27.549 C7.266,27.878 6.410,28.862 6.127,30.137 C6.060,30.441 6.060,30.441 6.060,30.441 C6.280,30.699 6.495,30.961 6.739,31.204 C9.221,33.686 12.671,35.053 16.453,35.053 C19.675,35.053 22.927,34.074 25.811,32.291 C20.899,28.503 20.899,28.503 20.899,28.503 C20.577,28.254 20.408,27.875 20.458,27.517 C20.655,26.106 20.655,26.106 20.655,26.106 C23.412,25.620 25.231,23.901 26.291,21.535 C27.527,21.393 28.525,20.583 28.629,19.487 C28.744,18.280 28.744,18.280 28.744,18.280 C28.831,17.369 28.253,16.541 27.369,16.085 " fill="#FFD949" />
</g>
</g>
</svg>
