<svg version="1.1" xmlns="http://www.w3.org/2000/svg" xmlns:xlink="http://www.w3.org/1999/xlink" width="41" height="41" viewBox="0 0 41 41">
<path id="Forma-1" d="M37.785,31.526 C36.378,33.727 34.574,35.629 32.476,37.140 C32.219,36.360 31.886,35.609 31.484,34.895 C35.942,31.515 38.598,26.263 38.598,20.500 C38.598,10.521 30.479,2.402 20.500,2.402 C10.521,2.402 2.402,10.521 2.402,20.500 C2.402,26.263 5.058,31.515 9.516,34.895 C9.113,35.609 8.781,36.360 8.523,37.140 C6.425,35.629 4.622,33.727 3.215,31.526 C1.112,28.235 -0.000,24.423 -0.000,20.500 C-0.000,15.024 2.132,9.876 6.004,6.004 C9.876,2.132 15.024,-0.000 20.500,-0.000 C25.975,-0.000 31.123,2.132 34.995,6.004 C38.867,9.876 41.000,15.024 41.000,20.500 C41.000,24.423 39.888,28.235 37.785,31.526 zM25.561,20.500 C25.561,23.290 23.291,25.561 20.500,25.561 C17.709,25.561 15.439,23.290 15.439,20.500 C15.439,17.709 17.709,15.439 20.500,15.439 C23.291,15.439 25.561,17.709 25.561,20.500 zM15.418,29.546 C14.594,29.909 13.807,30.360 13.073,30.895 C9.834,28.574 7.719,24.780 7.719,20.500 C7.719,13.453 13.453,7.719 20.500,7.719 C27.547,7.719 33.280,13.453 33.280,20.500 C33.280,24.780 31.166,28.574 27.926,30.895 C27.193,30.360 26.406,29.909 25.582,29.546 C28.740,27.764 30.878,24.377 30.878,20.500 C30.878,14.777 26.222,10.122 20.500,10.122 C14.777,10.122 10.122,14.777 10.122,20.500 C10.122,24.377 12.260,27.764 15.418,29.546 zM13.785,33.398 C15.644,31.773 18.028,30.878 20.500,30.878 C22.971,30.878 25.356,31.773 27.214,33.398 C29.054,35.007 30.258,37.220 30.602,39.629 C30.651,39.973 30.549,40.323 30.320,40.585 C30.092,40.849 29.761,41.000 29.413,41.000 C29.413,41.000 11.587,41.000 11.587,41.000 C11.239,41.000 10.908,40.849 10.679,40.585 C10.451,40.323 10.348,39.973 10.398,39.629 C10.742,37.220 11.945,35.007 13.785,33.398 z" fill="#5A6389" />
</svg>
