<svg version="1.1" xmlns="http://www.w3.org/2000/svg" xmlns:xlink="http://www.w3.org/1999/xlink" width="209" height="223" viewBox="0 0 209 223">
<g id="Group-6">
<path id="Ellipse-843" d="M107.000,0.000 C162.781,0.000 208.000,45.219 208.000,101.000 C208.000,156.781 162.781,202.000 107.000,202.000 C51.219,202.000 6.000,156.781 6.000,101.000 C6.000,45.219 51.219,0.000 107.000,0.000 z" fill="#A6C437" />
<g id="icon-cap">
<g id="Group-6">
<path id="Color-Fill-1" d="M173.749,102.107 C173.749,102.107 172.579,154.635 172.579,154.635 C164.927,160.497 156.714,165.233 148.155,168.850 C146.026,169.750 143.876,170.581 141.708,171.344 C124.768,177.290 106.732,179.012 89.187,176.545 C69.078,173.718 49.615,165.391 33.176,151.618 C34.346,99.090 34.346,99.090 34.346,99.090 L173.749,102.107 z" fill="#545D68" />
<path id="Color-Fill-2" d="M68.526,99.832 C68.526,99.832 66.940,171.040 66.940,171.040 C54.890,166.700 43.445,160.221 33.176,151.620 C34.346,99.092 34.346,99.092 34.346,99.092 L68.526,99.832 z" fill="#000000" />
<path id="Color-Fill-3" d="M148.155,168.850 C146.026,169.750 143.876,170.581 141.708,171.344 C143.016,112.575 143.016,112.575 143.016,112.575 C143.064,110.414 144.535,108.690 146.299,108.728 C148.061,108.766 149.453,110.552 149.405,112.713 C149.405,112.713 148.155,168.850 148.155,168.850 z" fill="#000000" />
<path id="Color-Fill-4" d="M173.749,102.107 L173.654,106.367 L103.360,131.440 L34.251,103.350 L34.346,99.090 L173.749,102.107 z" fill="#000000" />
<path id="Color-Fill-5" d="M209.001,75.056 L208.676,89.647 L103.454,127.180 L0.004,85.131 L0.328,70.540 L105.551,33.007 L209.001,75.056 z" fill="#545D68" />
<path id="Color-Fill-6" d="M103.779,112.591 L103.454,127.180 L0.004,85.131 L0.328,70.540 L103.779,112.591 z" fill="#3B454F" />
<path id="Color-Fill-7" d="M152.581,185.887 C154.598,95.299 154.598,95.299 154.598,95.299 C154.598,95.299 103.391,70.750 103.391,70.750 C101.801,69.988 101.130,68.079 101.894,66.486 C102.657,64.895 104.564,64.222 106.158,64.985 C159.221,90.425 159.221,90.425 159.221,90.425 C160.353,90.967 161.060,92.122 161.032,93.375 C158.968,186.025 158.968,186.025 158.968,186.025 C158.929,187.790 157.468,189.191 155.704,189.152 C153.940,189.114 152.542,187.652 152.581,185.887 z" fill="#6198CE" />
<path id="Color-Fill-8" d="M154.544,223.001 C149.604,222.894 145.689,218.802 145.799,213.862 C145.909,208.920 150.002,205.002 154.942,205.109 C159.881,205.216 163.796,209.307 163.685,214.249 C163.575,219.189 159.482,223.108 154.544,223.001 z" fill="#F7D360" />
</g>
</g>
</g>
</svg>
