<svg version="1.1" xmlns="http://www.w3.org/2000/svg" xmlns:xlink="http://www.w3.org/1999/xlink" width="37" height="28" viewBox="0 0 37 28">
<path id="Color-Fill-2" d="M26.702,-0.000 C26.702,-0.000 18.500,-0.000 18.500,-0.000 C18.234,-0.000 17.970,0.010 17.709,0.030 C17.460,0.049 17.214,0.078 16.970,0.114 C16.944,0.118 16.918,0.122 16.891,0.126 C16.674,0.161 16.460,0.202 16.247,0.250 C16.033,0.298 15.821,0.354 15.612,0.415 C15.500,0.448 15.389,0.483 15.279,0.519 C15.112,0.574 14.947,0.634 14.784,0.698 C14.751,0.710 14.718,0.723 14.686,0.737 C14.554,0.790 14.423,0.845 14.294,0.903 C14.133,0.976 13.973,1.053 13.816,1.134 C13.726,1.180 13.637,1.228 13.549,1.277 C13.442,1.337 13.335,1.398 13.231,1.461 C13.039,1.577 12.851,1.698 12.667,1.825 C12.589,1.880 12.511,1.935 12.434,1.992 C12.368,2.041 12.303,2.090 12.238,2.140 C12.181,2.183 12.126,2.227 12.071,2.271 C11.941,2.376 11.813,2.484 11.689,2.595 C11.618,2.658 11.548,2.722 11.479,2.786 C11.394,2.867 11.309,2.948 11.226,3.031 C11.224,3.033 11.223,3.034 11.222,3.036 C11.131,3.127 11.043,3.220 10.956,3.314 C10.882,3.394 10.809,3.475 10.737,3.558 C10.655,3.652 10.575,3.749 10.496,3.846 C10.380,3.991 10.267,4.139 10.159,4.289 C10.014,4.489 9.878,4.694 9.748,4.904 C9.473,5.348 9.231,5.813 9.025,6.298 C9.011,6.332 8.997,6.365 8.984,6.398 C8.819,6.796 8.679,7.206 8.565,7.627 C8.351,8.414 8.227,9.237 8.205,10.086 C8.203,10.175 8.202,10.264 8.202,10.353 C8.202,10.442 8.203,10.531 8.205,10.619 C8.229,11.573 8.383,12.494 8.648,13.366 C8.745,13.687 8.857,14.000 8.984,14.307 C8.997,14.340 9.011,14.374 9.025,14.407 C9.231,14.892 9.473,15.358 9.748,15.802 C9.878,16.012 10.014,16.217 10.159,16.416 C10.267,16.567 10.380,16.715 10.496,16.859 C10.575,16.957 10.655,17.053 10.737,17.148 C10.809,17.230 10.882,17.311 10.956,17.391 C11.016,17.456 11.077,17.521 11.138,17.584 C11.196,17.643 11.254,17.702 11.313,17.760 C11.368,17.813 11.423,17.867 11.479,17.919 C11.548,17.984 11.618,18.047 11.688,18.110 C11.813,18.221 11.941,18.329 12.071,18.434 C12.126,18.478 12.181,18.522 12.237,18.565 C12.303,18.615 12.368,18.665 12.434,18.713 C12.511,18.770 12.589,18.825 12.667,18.880 C12.851,19.007 13.039,19.129 13.231,19.244 C13.335,19.307 13.442,19.369 13.549,19.428 C13.637,19.477 13.726,19.525 13.816,19.571 C13.973,19.652 14.132,19.729 14.294,19.802 C14.423,19.860 14.554,19.916 14.686,19.969 C14.718,19.982 14.751,19.995 14.784,20.007 C14.947,20.071 15.112,20.131 15.279,20.186 C15.389,20.223 15.500,20.258 15.612,20.291 C15.821,20.352 16.033,20.407 16.247,20.455 C16.459,20.503 16.674,20.544 16.891,20.579 C16.917,20.583 16.944,20.587 16.970,20.591 C17.214,20.628 17.460,20.656 17.709,20.675 C17.970,20.695 18.234,20.706 18.500,20.706 C19.994,20.706 21.210,19.484 21.210,17.981 C21.210,16.479 19.994,15.257 18.500,15.257 C17.661,15.257 16.871,15.042 16.180,14.666 C16.161,14.655 16.142,14.644 16.123,14.633 C15.730,14.411 15.369,14.137 15.052,13.819 C14.827,13.592 14.624,13.344 14.446,13.077 C13.926,12.297 13.622,11.360 13.622,10.353 C13.622,9.345 13.926,8.408 14.446,7.628 C15.323,6.315 16.812,5.449 18.500,5.449 C26.702,5.449 26.702,5.449 26.702,5.449 C29.392,5.449 31.580,7.649 31.580,10.353 C31.580,11.663 31.065,12.855 30.229,13.735 C30.706,15.062 30.966,16.492 30.966,17.981 C30.966,18.612 30.919,19.231 30.829,19.837 C34.459,18.234 37.000,14.587 37.000,10.353 C37.000,4.644 32.380,-0.000 26.702,-0.000 C18.500,-0.000 26.702,-0.000 26.702,-0.000 zM28.016,13.693 C27.971,13.582 27.923,13.472 27.874,13.363 C27.826,13.258 27.776,13.154 27.725,13.051 C27.674,12.946 27.621,12.842 27.566,12.740 C27.476,12.574 27.382,12.411 27.285,12.250 C27.129,11.996 26.964,11.749 26.788,11.510 C26.749,11.457 26.709,11.404 26.669,11.351 C26.300,10.869 25.891,10.420 25.445,10.010 C25.423,9.990 25.401,9.970 25.379,9.950 C25.119,9.715 24.848,9.494 24.565,9.286 C24.489,9.230 24.411,9.174 24.333,9.120 C23.966,8.866 23.583,8.634 23.184,8.429 C23.100,8.385 23.015,8.343 22.929,8.302 C22.728,8.205 22.523,8.115 22.315,8.031 C22.282,8.018 22.249,8.005 22.216,7.992 C22.040,7.923 21.862,7.859 21.681,7.800 C21.597,7.773 21.513,7.746 21.428,7.721 C21.193,7.651 20.955,7.589 20.714,7.536 C20.528,7.495 20.340,7.459 20.151,7.428 C20.102,7.420 20.053,7.412 20.003,7.405 C19.768,7.370 19.531,7.343 19.291,7.325 C19.030,7.304 18.766,7.294 18.500,7.294 C17.005,7.294 15.790,8.516 15.790,10.018 C15.790,11.521 17.005,12.743 18.500,12.743 C18.868,12.743 19.226,12.786 19.570,12.863 C19.750,12.904 19.927,12.955 20.099,13.015 C20.154,13.034 20.209,13.055 20.263,13.076 C20.970,13.352 21.598,13.789 22.101,14.343 C22.112,14.355 22.122,14.367 22.133,14.379 C22.215,14.471 22.293,14.566 22.368,14.664 C22.400,14.706 22.432,14.749 22.463,14.792 C22.493,14.836 22.524,14.879 22.554,14.923 C23.074,15.702 23.378,16.640 23.378,17.647 C23.378,20.351 21.190,22.551 18.500,22.551 C10.298,22.551 10.298,22.551 10.298,22.551 C7.608,22.551 5.420,20.351 5.420,17.647 C5.420,16.336 5.935,15.145 6.771,14.264 C6.295,12.938 6.034,11.508 6.034,10.018 C6.034,9.388 6.081,8.768 6.171,8.163 C2.541,9.765 -0.000,13.413 -0.000,17.647 C-0.000,23.355 4.620,28.000 10.298,28.000 C18.500,28.000 18.500,28.000 18.500,28.000 C18.766,28.000 19.030,27.990 19.291,27.970 C19.531,27.951 19.768,27.924 20.003,27.889 C20.052,27.882 20.101,27.874 20.151,27.866 C20.340,27.836 20.528,27.799 20.714,27.758 C20.955,27.705 21.193,27.643 21.428,27.573 C21.513,27.548 21.597,27.521 21.681,27.493 C21.862,27.435 22.040,27.371 22.216,27.302 C22.249,27.289 22.281,27.277 22.314,27.263 C22.523,27.179 22.728,27.089 22.929,26.992 C23.015,26.951 23.100,26.909 23.184,26.865 C23.583,26.660 23.966,26.428 24.332,26.174 C24.411,26.120 24.488,26.064 24.565,26.008 C24.847,25.800 25.119,25.579 25.379,25.344 C25.401,25.324 25.423,25.304 25.445,25.284 C25.555,25.182 25.664,25.079 25.770,24.972 C25.773,24.970 25.775,24.967 25.778,24.964 C26.097,24.644 26.394,24.303 26.669,23.943 C26.709,23.890 26.749,23.837 26.788,23.784 C26.963,23.545 27.129,23.298 27.284,23.044 C27.382,22.883 27.476,22.720 27.565,22.554 C27.621,22.452 27.673,22.348 27.725,22.243 C27.776,22.140 27.826,22.037 27.874,21.931 C27.923,21.822 27.970,21.712 28.016,21.601 C28.180,21.203 28.320,20.793 28.435,20.373 C28.648,19.586 28.773,18.763 28.794,17.914 C28.796,17.825 28.797,17.736 28.797,17.647 C28.797,17.558 28.796,17.469 28.794,17.380 C28.770,16.427 28.617,15.506 28.352,14.633 C28.255,14.313 28.143,13.999 28.016,13.693 z" fill="#5A6389" />
</svg>
