<svg version="1.1" xmlns="http://www.w3.org/2000/svg" xmlns:xlink="http://www.w3.org/1999/xlink" width="40" height="40" viewBox="0 0 40 40">
<path id="Forma-1" d="M24.696,39.433 C24.696,39.433 25.062,38.109 25.062,38.109 L28.497,35.817 L29.398,33.360 L31.773,32.258 L34.022,27.959 L30.543,25.914 L28.744,23.868 L27.678,23.745 L25.552,23.171 L23.718,22.882 L22.113,23.332 L21.131,22.230 L20.147,21.943 L20.230,20.471 L19.042,20.509 L18.366,21.288 L17.980,19.650 L19.532,18.913 L21.131,19.650 L21.988,19.650 L22.299,18.381 L24.691,15.515 L28.009,13.840 L29.930,14.084 L30.105,13.145 L27.723,10.729 L26.822,8.930 L25.510,8.930 L24.691,8.451 L22.931,8.190 L22.563,10.282 L20.432,9.872 L20.270,8.563 L21.907,8.192 L22.446,5.846 L24.069,6.514 L24.028,7.512 L25.265,8.027 L26.091,8.271 L27.107,7.741 L26.205,6.678 L24.360,4.879 L24.404,4.017 L26.287,4.386 L27.882,5.817 L28.374,7.086 L28.744,8.276 L31.283,10.565 L31.935,10.773 L32.836,9.333 L36.027,9.050 C36.027,9.050 36.626,8.860 36.626,8.860 C38.766,12.041 40.013,15.876 40.013,19.996 C40.013,29.429 33.478,37.317 24.696,39.433 zM25.836,1.716 L24.447,2.644 L23.464,3.730 L19.888,4.065 L18.416,3.823 L17.406,5.409 L14.460,5.573 L12.616,5.041 L10.976,5.939 L7.420,6.435 L4.569,7.258 C4.569,7.258 4.559,7.258 4.559,7.258 C8.228,2.812 13.783,-0.019 19.997,-0.019 C23.048,-0.019 25.928,0.686 28.520,1.903 C28.520,1.903 27.801,2.012 27.801,2.012 L25.836,1.716 zM16.871,2.135 L15.690,2.511 C15.690,2.511 14.787,2.135 14.787,2.135 C14.758,2.374 13.476,3.199 13.476,3.199 L14.787,3.966 L17.515,3.250 L16.871,2.135 zM22.889,0.846 L20.843,1.971 L19.669,2.703 L20.485,3.233 L22.299,3.051 L24.201,1.604 L22.889,0.846 zM3.858,11.465 L6.107,11.465 L9.446,10.869 L11.550,14.287 L11.550,17.481 L14.419,21.371 L14.906,21.371 L14.906,19.998 L16.011,22.311 L19.340,23.056 L20.843,24.564 L22.181,24.966 L20.843,27.755 L22.301,30.458 C22.301,30.458 23.217,33.567 23.220,33.691 C23.220,33.813 22.301,37.414 22.301,37.414 C22.301,37.414 22.510,39.838 22.510,39.838 C21.684,39.939 20.849,40.013 19.997,40.013 C8.942,40.013 -0.019,31.050 -0.019,19.998 C-0.019,16.314 0.993,12.875 2.729,9.911 C2.729,9.911 4.169,9.578 4.169,9.578 L2.725,10.723 L3.858,11.465 z" fill="#353949" />
</svg>
