<svg version="1.1" xmlns="http://www.w3.org/2000/svg" xmlns:xlink="http://www.w3.org/1999/xlink" width="35" height="31" viewBox="0 0 35 31">
<path id="Color-Fill-4" d="M31.875,24.350 L31.875,-0.000 C31.875,-0.000 30.921,0.078 30.921,0.078 C27.097,0.386 23.345,1.276 19.804,2.718 C18.125,3.397 18.125,3.397 18.125,3.397 L18.125,27.651 C18.125,27.651 19.347,27.156 19.347,27.156 C23.012,25.670 26.892,24.751 30.847,24.432 C31.875,-0.000 31.875,24.350 31.875,24.350 zM35.000,3.600 L33.125,3.600 C33.125,3.600 33.125,24.911 33.125,24.911 C33.126,25.228 32.876,25.493 32.551,25.520 C30.951,25.648 30.951,25.648 30.951,25.648 C30.489,25.685 30.028,25.731 29.569,25.786 C29.420,25.803 29.272,25.827 29.124,25.847 C28.814,25.887 28.506,25.928 28.198,25.975 C28.018,26.003 27.840,26.036 27.661,26.066 C27.385,26.113 27.109,26.160 26.834,26.213 C26.647,26.250 26.459,26.291 26.268,26.330 C26.006,26.384 25.744,26.440 25.484,26.500 C25.289,26.545 25.095,26.593 24.901,26.641 C24.648,26.702 24.396,26.768 24.145,26.836 C23.949,26.888 23.754,26.944 23.559,27.000 C23.309,27.072 23.062,27.145 22.816,27.222 C22.622,27.282 22.429,27.343 22.236,27.404 C21.989,27.485 21.743,27.569 21.498,27.656 C21.311,27.722 21.123,27.788 20.931,27.858 C20.846,27.890 20.760,27.924 20.675,27.956 C35.000,27.956 35.000,27.956 35.000,27.956 L35.000,3.600 zM3.125,-0.000 L3.125,24.352 C3.125,24.352 4.234,24.444 4.234,24.444 C8.187,24.766 12.064,25.690 15.722,27.184 C16.875,27.651 16.875,27.651 16.875,27.651 L16.875,3.397 C16.875,3.397 15.198,2.719 15.198,2.719 C11.656,1.277 7.904,0.386 4.079,0.078 C4.079,0.078 3.125,-0.000 3.125,-0.000 zM-0.000,6.644 L-0.000,31.000 C-0.000,31.000 14.335,31.000 14.335,31.000 C14.258,30.970 14.181,30.939 14.104,30.911 C13.925,30.844 13.744,30.781 13.564,30.717 C13.311,30.627 13.057,30.540 12.801,30.456 C12.616,30.396 12.431,30.336 12.245,30.279 C11.991,30.198 11.737,30.121 11.482,30.050 C11.294,29.996 11.107,29.942 10.919,29.891 C10.662,29.822 10.405,29.756 10.147,29.692 C9.959,29.645 9.772,29.598 9.580,29.554 C9.318,29.493 9.055,29.437 8.792,29.382 C8.604,29.343 8.417,29.303 8.229,29.266 C7.957,29.214 7.683,29.167 7.409,29.120 C7.230,29.090 7.050,29.059 6.871,29.028 C6.569,28.981 6.266,28.942 5.962,28.902 C5.809,28.882 5.657,28.858 5.504,28.841 C5.046,28.787 4.588,28.741 4.129,28.703 C2.447,28.564 2.447,28.564 2.447,28.564 C2.122,28.537 1.874,28.272 1.875,27.955 C1.875,6.644 1.875,6.644 1.875,6.644 L-0.000,6.644 z" fill="#FFFFFF" />
</svg>
