<svg version="1.1" xmlns="http://www.w3.org/2000/svg" xmlns:xlink="http://www.w3.org/1999/xlink" width="35" height="33" viewBox="0 0 35 33">
<g id="level-icon">
<g id="Group-6">
<path id="Color-Fill-1" d="M32.483,29.032 C33.621,29.032 34.543,29.943 34.543,31.066 C34.543,31.066 34.543,31.066 34.543,31.066 C34.543,32.190 33.621,33.101 32.483,33.101 C2.790,33.101 2.790,33.101 2.790,33.101 C1.653,33.101 0.731,32.190 0.731,31.066 C0.731,31.066 0.731,31.066 0.731,31.066 C0.731,29.943 1.653,29.032 2.790,29.032 C2.790,29.032 32.483,29.032 32.483,29.032 z" fill="#CE7419" />
<path id="Color-Fill-2" d="M12.546,16.086 L17.641,4.169 L22.735,16.086 L32.491,9.754 L32.491,29.032 L28.276,29.032 L7.005,29.032 L2.790,29.032 L2.790,9.754 L12.546,16.086 z" fill="#FCBA29" />
<path id="Color-Fill-3" d="M22.735,16.086 L32.491,9.754 L32.491,29.032 L28.276,29.032 L17.641,29.032 L17.641,4.169 L22.735,16.086 z" fill="#E99A23" />
<path id="Ellipse-1" d="M1.867,6.593 C2.802,6.593 3.561,7.343 3.561,8.267 C3.561,9.192 2.802,9.942 1.867,9.942 C0.932,9.942 0.174,9.192 0.174,8.267 C0.174,7.343 0.932,6.593 1.867,6.593 z" fill="#FCBA29" />
<path id="Ellipse-2" d="M33.414,6.774 C34.349,6.774 35.108,7.524 35.108,8.449 C35.108,9.373 34.349,10.123 33.414,10.123 C32.479,10.123 31.721,9.373 31.721,8.449 C31.721,7.524 32.479,6.774 33.414,6.774 z" fill="#FCBA29" />
<path id="Ellipse-3" d="M17.639,0.182 C18.752,0.182 19.655,1.075 19.655,2.176 C19.655,3.278 18.752,4.171 17.639,4.171 C16.526,4.171 15.623,3.278 15.623,2.176 C15.623,1.075 16.526,0.182 17.639,0.182 z" fill="#FCBA29" />
<path id="Color-Fill-4" d="M19.092,19.233 L20.551,21.148 L19.092,23.063 L17.641,24.978 L16.189,23.063 L14.731,21.148 L16.189,19.233 L17.641,17.319 L19.092,19.233 z" fill="#CE7419" />
<path id="Color-Fill-5" d="M28.027,20.387 L29.060,21.757 L28.027,23.121 L26.986,24.484 L25.945,23.121 L24.912,21.757 L25.945,20.387 L26.986,19.023 L28.027,20.387 z" fill="#CE7419" />
<path id="Color-Fill-6" d="M9.336,20.387 L10.369,21.757 L9.336,23.121 L8.295,24.484 L7.254,23.121 L6.213,21.757 L7.254,20.387 L8.295,19.023 L9.336,20.387 z" fill="#CE7419" />
</g>
</g>
</svg>
