<svg version="1.1" xmlns="http://www.w3.org/2000/svg" xmlns:xlink="http://www.w3.org/1999/xlink" width="20" height="20" viewBox="0 0 20 20">
<g id="Load-icon">
<g id="Load-icon">
<path id="Ellipse-841" d="M10.000,0.000 C15.523,0.000 20.000,4.477 20.000,10.000 C20.000,15.523 15.523,20.000 10.000,20.000 C4.477,20.000 0.000,15.523 0.000,10.000 C0.000,4.477 4.477,0.000 10.000,0.000 z" fill="#5A6389" opacity="0.549" />
<path id="Rounded-Rectangl" d="M9.500,3.000 C10.328,3.000 11.000,3.672 11.000,4.500 C11.000,4.500 11.000,15.500 11.000,15.500 C11.000,16.328 10.328,17.000 9.500,17.000 C8.672,17.000 8.000,16.328 8.000,15.500 C8.000,15.500 8.000,4.500 8.000,4.500 C8.000,3.672 8.672,3.000 9.500,3.000 z" fill="#F0F1F2" />
<path id="Rounded-Rectangl" d="M4.500,9.000 C4.500,9.000 15.500,9.000 15.500,9.000 C16.328,9.000 17.000,9.672 17.000,10.500 C17.000,11.328 16.328,12.000 15.500,12.000 C15.500,12.000 4.500,12.000 4.500,12.000 C3.672,12.000 3.000,11.328 3.000,10.500 C3.000,9.672 3.672,9.000 4.500,9.000 z" fill="#F0F1F2" />
</g>
</g>
</svg>
