<svg version="1.1" xmlns="http://www.w3.org/2000/svg" xmlns:xlink="http://www.w3.org/1999/xlink" width="75" height="75" viewBox="0 0 75 75">
<g id="Group-23">
<path id="Ellipse-840-copy" d="M37.375,4.844 C55.324,4.844 69.875,19.346 69.875,37.234 C69.875,55.123 55.324,69.625 37.375,69.625 C19.426,69.625 4.875,55.123 4.875,37.234 C4.875,19.346 19.426,4.844 37.375,4.844 z" fill="#A6C437" />
<path id="Forma-1-copy" d="M37.498,0.010 C16.820,0.010 -0.002,16.831 -0.002,37.504 C-0.002,58.179 16.820,74.999 37.498,74.999 C58.176,74.999 74.999,58.179 74.999,37.504 C74.999,16.831 58.176,0.010 37.498,0.010 zM59.120,58.167 C59.120,57.300 59.120,56.687 59.120,56.687 C59.120,51.575 53.211,49.708 50.049,48.357 C48.904,47.867 46.746,46.832 44.530,45.749 C43.780,45.383 43.107,44.409 43.022,43.580 C43.022,43.580 42.777,41.156 42.777,41.156 C44.472,39.578 45.999,37.380 46.258,34.931 C46.258,34.931 46.640,34.931 46.640,34.931 C47.241,34.931 47.807,34.481 47.897,33.930 C47.897,33.930 48.496,30.225 48.496,30.225 C48.576,29.434 47.829,28.953 47.226,28.953 C47.240,28.875 47.253,28.795 47.264,28.728 C47.341,28.283 47.387,27.852 47.416,27.434 C47.455,27.098 47.486,26.749 47.499,26.388 C47.563,24.639 47.267,23.109 46.777,22.253 C46.279,21.055 45.522,19.892 44.469,18.895 C41.540,16.123 38.143,15.043 35.246,17.272 C33.273,16.931 30.929,17.832 29.235,19.815 C28.311,20.898 27.735,22.136 27.489,23.355 C27.269,24.115 27.122,25.034 27.086,26.030 C27.047,27.137 27.155,28.150 27.359,28.970 C26.782,29.006 26.205,29.481 26.205,30.228 C26.205,30.228 26.803,33.933 26.803,33.933 C26.893,34.484 27.459,34.934 28.060,34.934 C28.060,34.934 28.403,34.934 28.403,34.934 C28.947,37.583 30.355,39.758 31.912,41.274 C31.912,41.274 31.676,43.616 31.676,43.616 C31.592,44.445 30.918,45.418 30.169,45.788 C28.027,46.834 25.917,47.840 24.654,48.360 C21.678,49.585 15.582,51.578 15.582,56.690 C15.582,56.690 15.582,57.847 15.582,57.847 C10.615,52.499 7.552,45.363 7.552,37.509 C7.552,20.999 20.986,7.567 37.500,7.567 C54.014,7.567 67.447,20.999 67.447,37.509 C67.446,45.516 64.265,52.786 59.120,58.167 z" fill="#FFFFFF" />
</g>
</svg>
