<svg version="1.1" xmlns="http://www.w3.org/2000/svg" xmlns:xlink="http://www.w3.org/1999/xlink" width="44" height="44" viewBox="0 0 44 44">
<path id="Forma-1" d="M36.266,15.468 C32.001,15.468 28.532,11.998 28.532,7.733 C28.532,3.468 32.001,-0.002 36.266,-0.002 C40.531,-0.002 44.000,3.468 44.000,7.733 C44.000,11.998 40.531,15.468 36.266,15.468 zM31.908,29.833 C31.908,29.833 13.745,11.845 13.745,11.845 L17.384,8.205 C17.384,8.205 36.585,27.470 36.585,27.470 C34.841,27.912 33.265,28.732 31.908,29.833 zM4.625,13.674 L13.738,4.559 L15.562,6.382 L6.447,15.497 L4.625,13.674 zM1.890,10.939 C-0.629,8.422 -0.629,4.341 1.890,1.825 C4.322,-0.610 8.572,-0.610 11.004,1.825 C11.004,1.825 11.915,2.736 11.915,2.736 L2.802,11.851 C2.802,11.851 1.890,10.939 1.890,10.939 zM1.290,28.518 C1.290,28.518 14.180,28.518 14.180,28.518 C14.893,28.518 15.469,29.094 15.469,29.807 C15.469,29.807 15.469,42.698 15.469,42.698 C15.469,43.410 14.893,43.987 14.180,43.987 C14.180,43.987 1.290,43.987 1.290,43.987 C0.577,43.987 0.001,43.410 0.001,42.698 C0.001,42.698 0.001,29.807 0.001,29.807 C0.001,29.094 0.577,28.518 1.290,28.518 zM11.922,13.668 C11.922,13.668 30.087,31.658 30.087,31.658 C28.907,33.120 28.023,34.827 27.614,36.728 C27.614,36.728 8.270,17.319 8.270,17.319 L11.922,13.668 zM38.551,29.739 C38.551,29.739 43.892,42.199 43.892,42.199 C44.352,43.270 43.262,44.349 42.200,43.891 C42.200,43.891 29.974,38.652 29.974,38.652 C30.293,33.974 33.923,30.235 38.551,29.739 z" fill="#5A6389" />
</svg>
