<svg version="1.1" xmlns="http://www.w3.org/2000/svg" xmlns:xlink="http://www.w3.org/1999/xlink" width="199" height="199" viewBox="0 0 199 199">
<g id="Quiz-icon">
<g id="Quiz-icon">
<path id="Color-Fill-1" d="M179.506,158.664 C175.002,164.744 169.820,170.295 164.074,175.201 C146.696,190.041 124.148,199.000 99.500,199.000 C85.225,199.000 71.656,195.995 59.387,190.581 C54.087,188.246 49.031,185.460 44.267,182.272 C41.010,180.099 37.895,177.735 34.926,175.201 C29.180,170.295 23.997,164.743 19.493,158.664 C7.245,142.126 -0.000,121.658 -0.000,99.500 C-0.000,77.342 7.245,56.874 19.494,40.336 C27.210,29.919 36.913,21.061 48.040,14.324 C63.055,5.231 80.664,-0.000 99.500,-0.000 C99.630,-0.000 99.760,-0.000 99.890,0.004 C118.580,0.073 136.051,5.292 150.960,14.324 C162.087,21.061 171.790,29.919 179.506,40.336 C191.755,56.873 199.000,77.342 199.000,99.500 C199.000,121.658 191.755,142.126 179.506,158.664 z" fill="#A6C437" />
<path id="Color-Fill-3" d="M179.506,158.664 C175.002,164.743 169.820,170.295 164.074,175.201 C146.696,190.041 124.148,199.000 99.500,199.000 C85.225,199.000 71.656,195.995 59.387,190.581 C54.087,188.246 49.031,185.460 44.267,182.272 C41.010,180.099 37.895,177.735 34.926,175.201 C29.180,170.295 23.997,164.743 19.493,158.664 C19.493,29.111 19.493,29.111 19.493,29.111 C19.493,20.944 26.113,14.324 34.280,14.324 C164.719,14.324 164.719,14.324 164.719,14.324 C172.886,14.324 179.506,20.944 179.506,29.111 C179.506,29.111 179.506,158.664 179.506,158.664 z" fill="#343A6E" />
<path id="Color-Fill-4" d="M164.074,175.201 C146.696,190.041 124.148,199.000 99.500,199.000 C85.225,199.000 71.656,195.995 59.387,190.581 C54.087,188.246 49.031,185.460 44.267,182.272 C41.010,180.099 37.895,177.735 34.926,175.201 C34.926,56.947 34.926,56.947 34.926,56.947 C34.926,51.797 39.097,47.626 44.243,47.626 C154.752,47.626 154.752,47.626 154.752,47.626 C159.898,47.626 164.074,51.797 164.074,56.947 C164.074,56.947 164.074,175.201 164.074,175.201 z" fill="#F0F0F0" />
<path id="Color-Fill-5" d="M139.096,44.463 C139.096,49.352 135.136,53.312 130.246,53.312 C68.751,53.312 68.751,53.312 68.751,53.312 C63.862,53.312 59.902,49.352 59.902,44.463 C59.902,18.300 59.902,18.300 59.902,18.300 C59.902,13.410 63.862,9.451 68.751,9.451 C84.233,9.451 84.233,9.451 84.233,9.451 C87.027,3.851 92.814,0.000 99.499,0.000 C100.539,0.000 101.558,0.094 102.545,0.272 C107.224,1.113 111.236,3.867 113.750,7.688 C113.783,7.737 113.811,7.782 113.840,7.831 C114.079,8.200 114.307,8.582 114.514,8.972 C114.607,9.142 114.693,9.305 114.766,9.451 C130.247,9.451 130.247,9.451 130.247,9.451 C135.136,9.451 139.096,13.411 139.096,18.300 C139.096,18.300 139.096,44.463 139.096,44.463 z" fill="#F2AE5A" />
<path id="Color-Fill-6" d="M139.096,44.463 C139.096,49.352 135.136,53.312 130.246,53.312 C74.843,53.312 74.843,53.312 74.843,53.312 C69.953,53.312 65.994,49.352 65.994,44.463 C65.994,18.300 65.994,18.300 65.994,18.300 C65.994,13.410 69.954,9.451 74.843,9.451 C84.233,9.451 84.233,9.451 84.233,9.451 C87.027,3.851 92.814,0.000 99.499,0.000 C100.539,0.000 101.558,0.094 102.545,0.272 C107.223,1.113 111.236,3.867 113.750,7.688 C113.783,7.737 113.811,7.782 113.839,7.831 C114.099,8.249 114.327,8.635 114.514,8.972 C114.607,9.142 114.692,9.305 114.765,9.451 C130.247,9.451 130.247,9.451 130.247,9.451 C135.136,9.451 139.096,13.411 139.096,18.300 C139.096,18.300 139.096,44.463 139.096,44.463 z" fill="#F9DF73" />
<path id="Ellipse-1" d="M99.500,8.062 C102.762,8.062 105.406,10.693 105.406,13.938 C105.406,17.182 102.762,19.813 99.500,19.813 C96.238,19.813 93.594,17.182 93.594,13.938 C93.594,10.693 96.238,8.062 99.500,8.062 z" fill="#343A6E" />
<path id="Color-Fill-7" d="M77.568,40.316 C75.213,40.316 73.304,38.407 73.304,36.052 C73.304,36.052 73.304,36.052 73.304,36.052 C73.304,33.697 75.213,31.788 77.568,31.788 C121.429,31.788 121.429,31.788 121.429,31.788 C123.784,31.788 125.693,33.697 125.693,36.052 C125.693,36.052 125.693,36.052 125.693,36.052 C125.694,38.407 123.785,40.316 121.429,40.316 C121.429,40.316 77.568,40.316 77.568,40.316 z" fill="#F2AE5A" />
<path id="Color-Fill-8" d="M48.328,102.859 C46.086,102.859 44.267,101.040 44.267,98.797 C44.267,73.211 44.267,73.211 44.267,73.211 C44.267,70.968 46.086,69.150 48.328,69.150 C73.914,69.150 73.914,69.150 73.914,69.150 C76.157,69.150 77.975,70.968 77.975,73.211 C77.975,98.797 77.975,98.797 77.975,98.797 C77.975,101.040 76.157,102.859 73.914,102.859 C73.914,102.859 48.328,102.859 48.328,102.859 zM69.853,94.736 L69.853,77.273 L52.390,77.273 L52.390,94.736 L69.853,94.736 z" fill="#5897D1" />
<path id="Color-Fill-9" d="M89.347,82.147 C87.104,82.147 85.285,80.328 85.285,78.085 C85.285,75.842 87.104,74.024 89.347,74.024 C114.933,74.024 114.933,74.024 114.933,74.024 C117.175,74.024 118.994,75.842 118.994,78.085 C118.994,80.328 117.175,82.147 114.933,82.147 C114.933,82.147 89.347,82.147 89.347,82.147 z" fill="#484B7F" />
<path id="Color-Fill-10" d="M89.347,97.985 C87.104,97.985 85.286,96.167 85.286,93.924 C85.286,91.681 87.104,89.863 89.347,89.863 C146.611,89.863 146.611,89.863 146.611,89.863 C148.853,89.863 150.672,91.681 150.672,93.924 C150.672,96.167 148.853,97.985 146.610,97.985 C146.610,97.985 89.347,97.985 89.347,97.985 z" fill="#484B7F" />
<path id="Color-Fill-11" d="M48.328,146.720 C46.086,146.720 44.267,144.902 44.267,142.659 C44.267,117.073 44.267,117.073 44.267,117.073 C44.267,114.830 46.086,113.011 48.328,113.011 C73.914,113.011 73.914,113.011 73.914,113.011 C76.157,113.011 77.975,114.830 77.975,117.073 C77.975,142.659 77.975,142.659 77.975,142.659 C77.975,144.902 76.157,146.720 73.914,146.720 C73.914,146.720 48.328,146.720 48.328,146.720 zM69.853,138.597 L69.853,121.134 L52.390,121.134 L52.390,138.597 L69.853,138.597 z" fill="#5897D1" />
<path id="Color-Fill-12" d="M89.347,126.007 C87.104,126.007 85.285,124.189 85.285,121.946 C85.285,119.703 87.104,117.885 89.347,117.885 C114.933,117.885 114.933,117.885 114.933,117.885 C117.175,117.885 118.994,119.703 118.994,121.946 C118.994,124.189 117.175,126.007 114.933,126.007 C114.933,126.007 89.347,126.007 89.347,126.007 z" fill="#484B7F" />
<path id="Color-Fill-13" d="M89.347,141.846 C87.104,141.846 85.286,140.028 85.286,137.785 C85.286,135.542 87.104,133.724 89.347,133.724 C146.611,133.724 146.611,133.724 146.611,133.724 C148.853,133.724 150.672,135.542 150.672,137.785 C150.671,140.028 148.853,141.846 146.610,141.846 C146.610,141.846 89.347,141.846 89.347,141.846 z" fill="#484B7F" />
<path id="Color-Fill-14" d="M48.328,156.873 C46.086,156.873 44.267,158.692 44.267,160.934 C44.267,182.272 44.267,182.272 44.267,182.272 C49.031,185.460 54.087,188.246 59.387,190.581 C73.914,190.581 73.914,190.581 73.914,190.581 C76.156,190.581 77.975,188.762 77.975,186.520 C77.975,160.934 77.975,160.934 77.975,160.934 C77.975,158.692 76.156,156.873 73.914,156.873 C73.914,156.873 48.328,156.873 48.328,156.873 zM52.389,182.459 L52.389,164.995 L69.853,164.995 L69.853,182.459 L52.389,182.459 z" fill="#5897D1" />
<path id="Color-Fill-15" d="M89.347,169.869 C87.104,169.869 85.285,168.050 85.285,165.807 C85.285,163.564 87.104,161.746 89.347,161.746 C114.933,161.746 114.933,161.746 114.933,161.746 C117.175,161.746 118.994,163.564 118.994,165.807 C118.994,168.050 117.175,169.869 114.933,169.869 C114.933,169.869 89.347,169.869 89.347,169.869 z" fill="#484B7F" />
<path id="Color-Fill-16" d="M89.347,185.707 C87.104,185.707 85.286,183.889 85.286,181.646 C85.286,179.403 87.104,177.585 89.347,177.585 C146.611,177.585 146.611,177.585 146.611,177.585 C148.853,177.585 150.672,179.403 150.672,181.646 C150.671,183.889 148.853,185.707 146.610,185.707 C146.610,185.707 89.347,185.707 89.347,185.707 z" fill="#484B7F" />
<path id="Color-Fill-17" d="M57.540,141.256 C44.544,121.762 44.544,121.762 44.544,121.762 C43.300,119.896 43.804,117.374 45.670,116.130 C47.537,114.886 50.058,115.390 51.302,117.257 C60.319,130.782 60.319,130.782 60.319,130.782 C60.319,130.782 71.869,106.399 71.869,106.399 C72.829,104.372 75.250,103.507 77.278,104.468 C79.305,105.428 80.169,107.849 79.209,109.876 C64.589,140.741 64.589,140.741 64.589,140.741 C63.963,142.063 62.673,142.947 61.214,143.053 C61.114,143.061 61.016,143.064 60.918,143.064 C59.567,143.064 58.296,142.391 57.540,141.256 z" fill="#EF487D" />
</g>
</g>
</svg>
