<svg version="1.1" xmlns="http://www.w3.org/2000/svg" xmlns:xlink="http://www.w3.org/1999/xlink" width="42" height="42" viewBox="0 0 42 42">
<path id="Color-Fill-1" d="M-0.000,21.000 C-0.000,32.550 9.450,42.000 21.000,42.000 C32.550,42.000 42.000,32.550 42.000,21.000 C42.000,9.450 32.550,-0.000 21.000,-0.000 C9.450,-0.000 -0.000,9.450 -0.000,21.000 zM21.000,4.200 C24.780,4.200 28.350,5.460 31.290,7.770 C7.770,31.290 7.770,31.290 7.770,31.290 C5.460,28.350 4.200,24.780 4.200,21.000 C4.200,11.760 11.760,4.200 21.000,4.200 zM10.710,34.230 C34.230,10.710 34.230,10.710 34.230,10.710 C36.540,13.650 37.800,17.220 37.800,21.000 C37.800,30.240 30.240,37.800 21.000,37.800 C17.220,37.800 13.650,36.540 10.710,34.230 z" fill="#FFBD0A" />
</svg>
