<svg version="1.1" xmlns="http://www.w3.org/2000/svg" xmlns:xlink="http://www.w3.org/1999/xlink" width="68" height="68" viewBox="0 0 68 68">
<g id="Group-24">
<path id="Ellipse-843" d="M34.000,-0.000 C52.778,-0.000 68.000,15.222 68.000,34.000 C68.000,52.778 52.778,68.000 34.000,68.000 C15.222,68.000 -0.000,52.778 -0.000,34.000 C-0.000,15.222 15.222,-0.000 34.000,-0.000 z" fill="#A6C437" />
<path id="Forma-1" d="M52.846,53.846 C51.311,55.384 48.816,55.384 47.278,53.846 C47.278,53.846 37.642,44.210 37.642,44.210 C39.875,42.774 41.775,40.875 43.210,38.642 C43.210,38.642 52.846,48.278 52.846,48.278 C54.384,49.816 54.384,52.310 52.846,53.846 zM27.750,44.500 C19.052,44.500 12.000,37.448 12.000,28.750 C12.000,20.052 19.052,13.000 27.750,13.000 C36.448,13.000 43.500,20.052 43.500,28.750 C43.500,37.448 36.448,44.500 27.750,44.500 zM27.750,16.937 C21.236,16.937 15.937,22.236 15.937,28.750 C15.937,35.263 21.236,40.562 27.750,40.562 C34.264,40.562 39.562,35.263 39.562,28.750 C39.562,22.236 34.264,16.937 27.750,16.937 zM21.187,28.750 C21.187,28.750 18.562,28.750 18.562,28.750 C18.562,23.684 22.684,19.562 27.750,19.562 C27.750,19.562 27.750,22.187 27.750,22.187 C24.132,22.187 21.187,25.131 21.187,28.750 z" fill="#FFFFFF" />
</g>
</svg>
