<svg version="1.1" xmlns="http://www.w3.org/2000/svg" xmlns:xlink="http://www.w3.org/1999/xlink" width="45" height="37" viewBox="0 0 45 37">
<g id="Skill-icon">
<g id="Skill-icon">
<path id="Ellipse-633" d="M18.500,-0.000 C28.717,-0.000 37.000,8.283 37.000,18.500 C37.000,28.717 28.717,37.000 18.500,37.000 C8.283,37.000 -0.000,28.717 -0.000,18.500 C-0.000,8.283 8.283,-0.000 18.500,-0.000 z" fill="#FFBD0A" />
<path id="Color-Fill-2" d="M16.791,27.355 L13.211,22.565 C13.211,22.565 40.706,2.018 40.706,2.018 C41.390,1.507 42.360,1.647 42.872,2.332 C44.598,4.642 44.598,4.642 44.598,4.642 C45.110,5.327 44.969,6.296 44.285,6.808 C44.285,6.808 16.791,27.355 16.791,27.355 z" fill="#EAA22F" />
<path id="Color-Fill-3" d="M14.974,24.924 L16.791,27.355 C16.791,27.355 44.285,6.808 44.285,6.808 C44.969,6.296 45.110,5.327 44.598,4.642 C43.708,3.450 43.708,3.450 43.708,3.450 L14.974,24.923 L14.974,24.924 z" fill="#E09112" />
<path id="Rounded-Rectangl" d="M13.211,22.565 L38.705,3.514 L42.284,8.303 L16.791,27.355 L13.211,22.565 z" fill="#5A6389" />
<path id="Rounded-Rectangl" d="M15.001,24.960 L40.494,5.909 L42.284,8.303 L16.791,27.355 L15.001,24.960 z" fill="#F0F1F2" opacity="0.412" />
<path id="Color-Fill-4" d="M13.211,22.565 L10.212,28.539 L16.791,27.355 L13.211,22.565 z" fill="#FEE187" />
<path id="Color-Fill-5" d="M10.257,28.448 L10.212,28.539 L16.791,27.355 L14.974,24.924 L10.257,28.448 z" fill="#FFC61B" />
<path id="Color-Fill-6" d="M10.212,28.539 L13.285,27.985 L11.613,25.748 L10.212,28.539 z" fill="#59595B" />
<path id="Color-Fill-7" d="M10.257,28.448 L10.212,28.539 L13.285,27.985 L12.422,26.830 L10.257,28.448 z" fill="#272525" />
<path id="Ellipse-2" d="M7.842,12.407 C9.164,11.419 11.037,11.690 12.026,13.012 C13.014,14.335 12.743,16.208 11.421,17.196 C10.099,18.185 8.225,17.914 7.237,16.591 C6.249,15.269 6.519,13.395 7.842,12.407 z" fill="#FFFFFF" />
<path id="Color-Fill-8" d="M7.795,12.446 C11.371,17.230 11.371,17.230 11.371,17.230 C11.387,17.218 11.405,17.209 11.421,17.196 C12.743,16.208 13.014,14.335 12.026,13.012 C11.037,11.690 9.164,11.419 7.842,12.407 C7.826,12.419 7.811,12.433 7.795,12.446 z" fill="#D0D1D3" />
<path id="Ellipse-2-copy" d="M16.842,6.407 C18.164,5.419 20.037,5.690 21.026,7.012 C22.014,8.335 21.743,10.208 20.421,11.197 C19.099,12.185 17.225,11.914 16.237,10.591 C15.249,9.269 15.519,7.395 16.842,6.407 z" fill="#FFFFFF" />
<path id="Color-Fill-8-cop" d="M16.795,6.446 C20.371,11.230 20.371,11.230 20.371,11.230 C20.387,11.218 20.405,11.209 20.421,11.197 C21.743,10.208 22.014,8.335 21.026,7.012 C20.037,5.690 18.164,5.419 16.842,6.407 C16.826,6.419 16.811,6.433 16.795,6.446 z" fill="#D0D1D3" />
</g>
</g>
</svg>
