<svg version="1.1" xmlns="http://www.w3.org/2000/svg" xmlns:xlink="http://www.w3.org/1999/xlink" width="46" height="46" viewBox="0 0 46 46">
<g id="start-icon" opacity="0.290">
<g id="Group-8">
<path id="Color-Fill-1" d="M18.530,35.235 C17.712,34.899 17.178,34.100 17.178,33.215 C17.178,12.784 17.178,12.784 17.178,12.784 C17.178,11.899 17.712,11.101 18.530,10.763 C19.348,10.425 20.289,10.614 20.913,11.242 C30.570,20.948 30.570,20.948 30.570,20.948 C31.699,22.082 31.699,23.915 30.570,25.050 C20.913,34.756 20.913,34.756 20.913,34.756 C20.288,35.383 19.348,35.572 18.530,35.235 z" fill="#000000" />
<path id="Color-Fill-2" d="M23.000,6.000 C32.374,6.000 40.000,13.626 40.000,23.000 C40.000,32.374 32.374,40.000 23.000,40.000 C13.626,40.000 6.000,32.374 6.000,23.000 C6.000,13.626 13.626,6.000 23.000,6.000 M-0.000,23.000 C-0.000,35.703 10.298,46.000 23.000,46.000 C35.702,46.000 46.000,35.703 46.000,23.000 C46.000,10.297 35.702,-0.000 23.000,-0.000 C23.000,-0.000 23.000,-0.000 23.000,-0.000 C10.298,-0.000 -0.000,10.297 -0.000,23.000 z" fill="#000000" />
</g>
</g>
</svg>
