<svg version="1.1" xmlns="http://www.w3.org/2000/svg" xmlns:xlink="http://www.w3.org/1999/xlink" width="34" height="34" viewBox="0 0 34 34">
<path id="Color-Fill-2" d="M7.115,15.097 C10.064,16.571 10.064,16.571 10.064,16.571 C10.049,16.691 10.027,16.809 10.027,16.933 C10.027,18.581 11.368,19.922 13.016,19.922 C14.663,19.922 16.004,18.581 16.004,16.933 C16.004,16.474 15.891,16.043 15.704,15.653 C19.704,11.653 19.704,11.653 19.704,11.653 C20.094,11.840 20.524,11.953 20.984,11.953 C22.632,11.953 23.973,10.612 23.973,8.965 C23.973,8.655 23.912,8.361 23.823,8.080 C27.299,5.474 27.299,5.474 27.299,5.474 C27.773,5.790 28.341,5.976 28.953,5.976 C30.601,5.976 31.941,4.636 31.941,2.988 C31.941,1.341 30.601,-0.000 28.953,-0.000 C27.305,-0.000 25.965,1.341 25.965,2.988 C25.965,3.298 26.026,3.592 26.114,3.873 C22.638,6.479 22.638,6.479 22.638,6.479 C22.164,6.162 21.596,5.976 20.984,5.976 C19.337,5.976 17.996,7.317 17.996,8.965 C17.996,9.425 18.109,9.855 18.296,10.245 C14.296,14.245 14.296,14.245 14.296,14.245 C13.906,14.058 13.476,13.945 13.016,13.945 C12.212,13.945 11.485,14.268 10.947,14.785 C7.999,13.311 7.999,13.311 7.999,13.311 C8.013,13.191 8.035,13.073 8.035,12.949 C8.035,11.301 6.695,9.961 5.047,9.961 C3.399,9.961 2.059,11.301 2.059,12.949 C2.059,14.597 3.399,15.937 5.047,15.937 C5.850,15.937 6.578,15.615 7.115,15.097 zM31.941,32.008 C31.941,32.008 31.941,10.957 31.941,10.957 C31.941,10.407 31.496,9.961 30.945,9.961 C26.961,9.961 26.961,9.961 26.961,9.961 C26.410,9.961 25.965,10.407 25.965,10.957 C25.965,32.008 25.965,32.008 25.965,32.008 L23.973,32.008 C23.973,32.008 23.973,16.933 23.973,16.933 C23.973,16.383 23.527,15.937 22.977,15.937 C18.992,15.937 18.992,15.937 18.992,15.937 C18.442,15.937 17.996,16.383 17.996,16.933 C17.996,32.008 17.996,32.008 17.996,32.008 L16.004,32.008 C16.004,32.008 16.004,24.902 16.004,24.902 C16.004,24.352 15.558,23.906 15.008,23.906 C11.023,23.906 11.023,23.906 11.023,23.906 C10.473,23.906 10.027,24.352 10.027,24.902 C10.027,32.008 10.027,32.008 10.027,32.008 L8.035,32.008 C8.035,32.008 8.035,20.918 8.035,20.918 C8.035,20.367 7.589,19.922 7.039,19.922 C3.055,19.922 3.055,19.922 3.055,19.922 C2.504,19.922 2.059,20.367 2.059,20.918 C2.059,32.008 2.059,32.008 2.059,32.008 C2.059,32.008 0.996,32.008 0.996,32.008 C0.446,32.008 -0.000,32.453 -0.000,33.004 C-0.000,33.554 0.446,34.000 0.996,34.000 C33.004,34.000 33.004,34.000 33.004,34.000 C33.554,34.000 34.000,33.554 34.000,33.004 C34.000,32.453 33.554,32.008 33.004,32.008 C33.004,32.008 31.941,32.008 31.941,32.008 z" fill="#FFFFFF" />
</svg>
