<svg version="1.1" xmlns="http://www.w3.org/2000/svg" xmlns:xlink="http://www.w3.org/1999/xlink" width="39" height="39" viewBox="0 0 39 39">
<path id="Forma-1" d="M19.500,39.000 C8.747,39.000 -0.000,30.252 -0.000,19.500 C-0.000,8.748 8.747,-0.000 19.500,-0.000 C30.252,-0.000 39.000,8.747 39.000,19.500 C39.000,30.252 30.252,39.000 19.500,39.000 zM33.314,12.710 C33.314,12.710 31.547,13.730 31.547,13.730 C31.386,13.823 31.209,13.867 31.035,13.867 C30.680,13.867 30.335,13.683 30.145,13.354 C29.862,12.863 30.030,12.236 30.521,11.952 C30.521,11.952 32.285,10.934 32.285,10.934 C31.067,9.122 29.475,7.583 27.620,6.427 C27.620,6.427 26.789,7.878 26.789,7.878 C26.692,8.046 26.511,8.151 26.316,8.151 C26.221,8.151 26.131,8.127 26.047,8.079 C25.787,7.930 25.697,7.597 25.846,7.338 C25.846,7.338 26.679,5.885 26.679,5.885 C24.819,4.901 22.736,4.287 20.526,4.140 C20.526,4.140 20.526,6.182 20.526,6.182 C20.526,6.749 20.067,7.208 19.500,7.208 C18.933,7.208 18.474,6.749 18.474,6.182 C18.474,6.182 18.474,4.140 18.474,4.140 C16.231,4.289 14.118,4.919 12.238,5.929 C12.238,5.929 13.079,7.377 13.079,7.377 C13.152,7.502 13.172,7.649 13.135,7.789 C13.098,7.929 13.008,8.046 12.882,8.119 C12.715,8.217 12.505,8.216 12.338,8.121 C12.255,8.073 12.188,8.006 12.140,7.923 C12.140,7.923 11.299,6.477 11.299,6.477 C9.479,7.628 7.915,9.149 6.715,10.934 C6.715,10.934 8.479,11.952 8.479,11.952 C8.970,12.236 9.138,12.863 8.854,13.354 C8.664,13.683 8.319,13.867 7.965,13.867 C7.791,13.867 7.614,13.823 7.453,13.730 C7.453,13.730 5.686,12.710 5.686,12.710 C4.744,14.620 4.186,16.751 4.114,19.004 C4.114,19.004 5.792,18.999 5.792,18.999 C6.090,18.999 6.334,19.242 6.335,19.540 C6.335,19.686 6.279,19.822 6.177,19.925 C6.075,20.028 5.939,20.085 5.793,20.085 C5.793,20.085 4.117,20.090 4.117,20.090 C4.201,22.308 4.757,24.407 5.686,26.290 C5.686,26.290 7.453,25.271 7.453,25.271 C7.943,24.987 8.571,25.155 8.854,25.646 C9.138,26.137 8.970,26.765 8.479,27.048 C8.479,27.048 6.715,28.066 6.715,28.066 C7.933,29.878 9.525,31.417 11.379,32.573 C11.379,32.573 12.211,31.122 12.211,31.122 C12.308,30.954 12.489,30.849 12.683,30.849 C12.778,30.849 12.869,30.873 12.952,30.921 C13.078,30.993 13.168,31.110 13.206,31.250 C13.244,31.390 13.225,31.537 13.153,31.663 C13.153,31.663 12.321,33.115 12.321,33.115 C14.180,34.099 16.264,34.713 18.474,34.860 C18.474,34.860 18.474,32.818 18.474,32.818 C18.474,32.252 18.933,31.792 19.500,31.792 C20.067,31.792 20.526,32.252 20.526,32.818 C20.526,32.818 20.526,34.860 20.526,34.860 C22.769,34.711 24.882,34.081 26.762,33.071 C26.762,33.071 25.921,31.624 25.921,31.624 C25.848,31.498 25.828,31.352 25.865,31.211 C25.902,31.071 25.992,30.954 26.117,30.881 C26.201,30.832 26.293,30.807 26.389,30.807 C26.582,30.807 26.763,30.911 26.860,31.078 C26.860,31.078 27.700,32.523 27.700,32.523 C29.521,31.372 31.085,29.852 32.285,28.066 C32.285,28.066 30.521,27.048 30.521,27.048 C30.030,26.765 29.862,26.137 30.145,25.646 C30.429,25.155 31.056,24.987 31.547,25.271 C31.547,25.271 33.314,26.290 33.314,26.290 C34.256,24.381 34.814,22.249 34.886,19.996 C34.886,19.996 33.210,20.001 33.210,20.001 C33.210,20.001 33.208,20.001 33.208,20.001 C33.113,20.001 33.020,19.977 32.939,19.930 C32.770,19.833 32.666,19.654 32.665,19.460 C32.664,19.315 32.721,19.178 32.823,19.075 C32.925,18.972 33.061,18.915 33.206,18.915 C33.206,18.915 34.882,18.910 34.882,18.910 C34.798,16.692 34.243,14.593 33.314,12.710 zM28.336,16.189 C28.336,16.189 21.619,19.916 21.619,19.916 C21.425,20.910 20.551,21.660 19.500,21.660 C18.449,21.660 17.574,20.910 17.380,19.916 C17.380,19.916 10.664,16.189 10.664,16.189 C10.041,15.844 9.817,15.059 10.162,14.436 C10.507,13.814 11.292,13.589 11.915,13.935 C11.915,13.935 18.498,17.587 18.498,17.587 C18.797,17.430 19.138,17.340 19.500,17.340 C19.862,17.340 20.202,17.430 20.502,17.587 C20.502,17.587 27.085,13.935 27.085,13.935 C27.708,13.589 28.492,13.814 28.837,14.436 C29.183,15.059 28.958,15.844 28.336,16.189 z" fill="#FFFFFF" />
</svg>
