<svg version="1.1" xmlns="http://www.w3.org/2000/svg" xmlns:xlink="http://www.w3.org/1999/xlink" width="53" height="42" viewBox="0 0 53 42">
<path id="Forma-1" d="M26.500,15.750 C22.109,15.750 18.550,19.276 18.550,23.625 C18.550,27.974 22.109,31.499 26.500,31.499 C30.890,31.499 34.450,27.974 34.450,23.625 C34.450,19.276 30.890,15.750 26.500,15.750 zM47.700,7.875 C47.700,7.875 41.340,7.875 41.340,7.875 C40.465,7.875 39.523,7.202 39.247,6.380 C39.247,6.380 37.603,1.493 37.603,1.493 C37.326,0.672 36.385,-0.001 35.510,-0.001 C35.510,-0.001 17.490,-0.001 17.490,-0.001 C16.616,-0.001 15.673,0.672 15.397,1.494 C15.397,1.494 13.753,6.381 13.753,6.381 C13.476,7.202 12.534,7.875 11.660,7.875 C11.660,7.875 5.300,7.875 5.300,7.875 C2.385,7.875 -0.000,10.237 -0.000,13.125 C-0.000,13.125 -0.000,36.750 -0.000,36.750 C-0.000,39.637 2.385,41.999 5.300,41.999 C5.300,41.999 47.700,41.999 47.700,41.999 C50.615,41.999 53.000,39.637 53.000,36.750 C53.000,36.750 53.000,13.125 53.000,13.125 C53.000,10.237 50.615,7.875 47.700,7.875 zM26.500,36.750 C19.182,36.750 13.250,30.873 13.250,23.625 C13.250,16.376 19.182,10.499 26.500,10.499 C33.816,10.499 39.750,16.376 39.750,23.625 C39.750,30.873 33.816,36.750 26.500,36.750 zM45.845,16.796 C44.821,16.796 43.990,15.974 43.990,14.958 C43.990,13.944 44.821,13.121 45.845,13.121 C46.870,13.121 47.700,13.944 47.700,14.958 C47.700,15.974 46.870,16.796 45.845,16.796 z" fill="#FFFFFF" opacity="0.369" />
</svg>
